<svg t="1715250296382" class="icon" viewBox="0 0 1024 1024" version="1.1" xmlns="http://www.w3.org/2000/svg" p-id="6577" width="200" height="200"><path d="M613.343811 776.047151l-0.502947 120.707269V908.3222c0 3.017682-0.502947 6.035363-0.502947 9.053046 0 1.005894 0 2.011788-0.502946 3.017681 0 2.011788-0.502947 4.023576-0.502947 6.035364s-0.502947 2.514735-0.502947 4.023575-0.502947 3.520629-1.005894 5.02947-0.502947 3.017682-1.005894 4.023576-0.502947 3.017682-1.005894 4.526522-1.005894 3.017682-1.508841 5.02947-0.502947 2.514735-1.005894 3.520628c-1.005894 2.514735-1.508841 5.532417-2.514735 8.047152v0.502947c-1.005894 2.011788-1.508841 4.526523-2.514734 6.53831l-0.502947 1.508841c-1.005894 1.508841-1.508841 3.017682-2.514735 4.526523l-1.005894 2.011787c-1.005894 2.011788-2.514735 4.023576-3.520629 6.035364l-0.502947 0.502947c-1.005894 1.508841-2.011788 3.520629-3.520628 5.029469l-1.508841 1.508841c-1.005894 1.508841-2.011788 2.514735-3.017682 4.023576l-1.508841 1.508841-4.526522 4.526522c-1.508841 1.508841-3.017682 3.017682-4.526523 4.023576l-1.508841 1.005894-4.023576 3.017682-1.50884 1.005893c-2.011788 1.508841-3.520629 2.514735-5.532417 3.520629l154.907662-90.027505c2.011788-1.005894 4.023576-2.514735 5.532417-3.520628l1.508841-1.005894c1.508841-1.005894 2.514735-2.011788 4.023575-3.017682l1.508841-1.005894c1.508841-1.508841 3.017682-2.514735 4.526523-4.023576l4.526522-4.526522 1.508841-1.508841c1.005894-1.005894 2.011788-2.514735 3.017682-4.023576l1.005894-1.508841c1.005894-1.508841 2.514735-3.520629 3.520628-5.029469l0.502947-0.502947c1.005894-2.011788 2.514735-4.023576 3.520629-6.035364l1.005894-2.011787 1.508841-3.017682 0.502947-1.508841 0.502947-1.508841c1.005894-2.011788 2.011788-4.023576 2.514735-6.53831v-0.502947c1.005894-2.514735 1.508841-5.02947 2.514734-8.047151 1.005894-4.023576 0-0.502947 0-0.502947 0.502947-1.005894 0.502947-2.011788 1.005894-3.017682s1.005894-3.017682 1.005894-5.02947v-1.005894c0-1.005894 0.502947-2.514735 0.502947-3.520628s0.502947-2.514735 1.005894-4.023576v-1.005894c0.502947-1.508841 0.502947-3.017682 0.502947-4.526522s0.502947-2.514735 0.502947-4.023576v-0.502947c0-1.508841 0.502947-3.520629 0.502947-5.532417 0-1.005894 0-2.011788 0.502947-3.017681v-0.502947c0-3.017682 0.502947-5.532417 0.502947-8.550098v-1.005894-10.058939l0.502947-120.70727-152.392928 90.027505z" fill="#F4E49C" p-id="6578"></path><path d="M631.449902 779.064833l-2.514735 1.508841-1.005894 0.502947-1.508841 0.502947-2.011788 0.502947h-0.502947l-2.514734 0.502947c-1.005894 0-2.011788 0.502947-3.520629 0.502947H606.302554l-2.011788-0.502947h-1.005894l-2.514734-0.502947-3.017682-1.005894-1.005894-0.502947-2.011788-1.005894-1.005894-0.502947-2.011788-1.005894-1.005894-0.502947-2.011787-1.005894-1.508841-0.502947-3.017682-1.508841c-2.011788-1.005894-4.526523-2.514735-6.53831-4.023575l-6.035364-4.526523H571.096267c-2.011788-1.508841-4.023576-3.017682-5.532416-5.029469l-0.502947-0.502947c-2.011788-1.508841-3.520629-3.520629-5.02947-5.02947l-0.502947-0.502947c-2.011788-2.011788-3.520629-4.023576-5.029469-6.035363-1.508841-2.011788-3.520629-4.526523-5.02947-6.538311l-0.502947-0.502947c-1.508841-2.011788-2.514735-4.023576-4.023575-6.035363l-1.005894-1.508841c-1.508841-2.514735-3.017682-4.526523-4.526523-7.041257-1.005894-1.508841-2.011788-3.017682-2.514735-5.02947l-1.005894-2.011788c-0.502947-0.502947-0.502947-1.508841-1.005894-2.011788s-1.005894-2.011788-1.50884-2.514734l-0.502947-1.005894c-0.502947-1.508841-1.005894-2.514735-1.508841-3.520629l-1.508841-1.508841-1.005894-3.017681-0.502947-1.005894-1.005894-3.017682c0-0.502947 0-0.502947-0.502947-1.005894-0.502947-1.005894-1.005894-2.514735-1.508841-3.520629l-0.502947-1.005894c-0.502947-1.005894-0.502947-2.011788-1.005894-2.514734l-0.502947-1.508841c0-1.005894-0.502947-1.508841-0.502946-2.514735s0-1.005894-0.502947-1.508841-0.502947-2.011788-0.502947-2.514735v-1.005894l-1.005894-3.520628v-1.005894c0-0.502947-0.502947-2.011788-0.502947-3.017682v-1.508841c0-1.005894 0-1.508841-0.502947-2.514735v-1.50884-2.514735-1.508841-2.514735-1.005894-3.520628l1.508841-472.267191v-4.526523V180.05501v-2.011788-1.508841l0.502947-2.011788 0.502947-1.508841c0-0.502947 0-1.005894 0.502947-1.50884l0.502946-1.508841c0-0.502947 0-1.005894 0.502947-1.508841s0.502947-1.508841 1.005894-2.514735v-0.502947l1.508841-3.017682s0-0.502947 0.502947-0.502947c0.502947-1.508841 1.508841-2.514735 2.011788-3.520628 0.502947-1.005894 1.508841-2.011788 2.011788-3.017682l0.502947-0.502947c1.005894-1.005894 1.508841-2.011788 2.514735-2.514735 1.005894-1.005894 2.011788-1.508841 2.514734-2.514734l0.502947-0.502947c1.005894-0.502947 2.011788-1.508841 3.017682-2.011788L386.011788 237.390963c-1.005894 0.502947-2.011788 1.508841-3.017682 2.011787l-0.502947 0.502947c-1.005894 0.502947-2.011788 1.508841-2.514735 2.514735l-2.514734 2.514735-0.502947 0.502947c-0.502947 1.005894-1.508841 2.011788-2.011788 3.017682-0.502947 1.005894-1.508841 2.514735-2.011788 3.520628v1.005894l-1.508841 3.017682v0.502947c-0.502947 1.005894-0.502947 1.508841-1.005894 2.514735l-0.502947 1.508841-0.502947 1.50884v2.011788c0 0.502947 0 1.005894-0.502947 1.508841V278.632613l-1.508841 472.267191v18.10609s0 1.508841 0.502947 2.011788v1.005894c0 1.005894 0.502947 2.011788 0.502947 3.017681V776.550098c0 0.502947 0.502947 1.508841 0.502947 2.011788v0.502947l0.502947 1.508841c0 0.502947 0.502947 1.005894 0.502947 1.508841l0.502947 1.005894c0 0.502947 0 1.005894 0.502947 1.508841s0 0.502947 0 1.005893l0.502947 2.011788 0.502947 1.005894v0.502947l1.005894 3.017682v0.502947l0.502947 1.005894 0.502947 2.011788 0.502947 1.005893 0.502947 1.005894c0 0.502947 0 0.502947 0.502947 1.005894l1.005894 2.011788 0.502947 0.502947v0.502947l1.50884 3.017682 0.502947 1.005894 1.005894 2.011787s0 0.502947 0.502947 0.502947c0.502947 0.502947 0.502947 1.508841 1.005894 2.011788s0.502947 1.005894 0.502947 1.508841l0.502947 0.502947c1.005894 1.508841 2.011788 3.017682 2.514735 5.02947l0.502947 0.502947c1.508841 2.011788 2.514735 4.526523 4.023576 6.53831l1.005893 1.508841 1.005894 1.508841c1.005894 1.508841 2.011788 3.017682 3.017682 4.023575l0.502947 1.005894 2.514735 3.520629 2.514735 3.017682 2.011787 2.514734 2.514735 2.514735 1.005894 1.005894 0.502947 0.502947c0.502947 0.502947 1.005894 0.502947 1.005894 1.005894l2.514735 2.514735 1.508841 1.508841 0.502947 0.502947 0.502946 0.502946c1.005894 1.005894 2.011788 1.508841 3.017682 2.514735l2.514735 2.011788 0.502947 0.502947 3.017682 2.011788 3.017681 2.011788 2.514735 2.011788c1.005894 0.502947 2.011788 1.508841 3.017682 2.011787l0.502947 0.502947 2.514735 1.508841 0.502947 0.502947 1.50884 0.502947 1.005894 0.502947 1.005894 0.502947 1.005894 0.502947 1.005894 0.502947 1.005894 0.502947 1.005894 0.502947 0.502947 0.502947 1.508841 0.502947 1.005894 0.502947 2.514734 1.005894H445.359528l2.011788 0.502947H448.880157c0.502947 0 1.005894 0 1.508841 0.502946h13.076621c1.005894 0 2.011788-0.502947 3.017682-0.502946l2.514734-0.502947h0.502947l1.508841-0.502947 1.508841-0.502947 1.005894-0.502947c1.005894-0.502947 1.508841-1.005894 2.514735-1.508841l0.502947-0.502947 154.907662-90.530452z" fill="#F4E49C" p-id="6579"></path><path d="M435.803536 115.174853c49.791749 28.667976 92.039293 73.430255 126.742633 133.78389s51.803536 119.198428 51.803536 176.031434l-0.502947 98.577603-117.18664-67.394892V354.577603c-0.502947-22.632613-7.041257-44.762279-18.609037-64.37721-10.561886-20.117878-26.656189-36.715128-46.27112-48.785855-18.10609-10.561886-33.194499-12.070727-45.768173-4.526522s-19.111984 21.626719-19.111984 42.247544l-1.508841 472.26719c0.502947 22.632613 7.041257 44.259332 18.609037 63.371317 10.561886 19.614931 26.656189 36.212181 45.768173 48.282907 18.10609 10.561886 33.194499 12.070727 46.27112 5.02947 12.573674-7.041257 19.111984-21.123772 19.111984-41.744597l0.502947-119.198429 117.689587 67.897839-0.502947 120.70727c0 57.335953-17.603143 96.062868-53.312377 115.677799s-77.453831 15.088409-126.742632-13.076621c-49.791749-29.170923-92.039293-73.933202-126.742633-134.286837S254.239686 745.870334 254.239686 689.037328l1.508841-470.75835c0-57.335953 17.603143-96.062868 53.312377-115.677799s77.453831-15.591356 126.742632 12.573674z" fill="#85A4C9" p-id="6580"></path><path d="M769.257367 326.412574v-1.005894-3.520629c0-1.005894 0-3.520629-0.502947-5.029469v-1.508841l-0.502947-4.023576-0.502946-4.023576-0.502947-2.514734c0-1.508841-0.502947-2.514735-0.502947-4.023576l-0.502947-2.514735c0-1.508841-0.502947-2.514735-0.502947-4.023575s-0.502947-2.514735-0.502947-3.520629v-1.508841c-0.502947-2.011788-0.502947-4.023576-1.005894-6.035363l-0.502947-2.514735v-0.502947c-0.502947-3.017682-1.005894-6.035363-2.011788-9.053045v-0.502947c0-1.005894-0.502947-1.508841-0.502947-2.514735l-1.508841-6.035364-0.502947-1.50884-1.005894-3.520629c-0.502947-1.508841-0.502947-2.514735-1.005894-4.023576s-0.502947-2.011788-1.005893-3.017681l-1.005894-3.520629c-0.502947-1.005894-0.502947-1.508841-0.502947-2.514735-0.502947-1.508841-1.005894-3.520629-1.508841-5.029469s-0.502947-2.011788-1.005894-3.017682 0-0.502947-0.502947-1.005894c-1.005894-3.017682-2.011788-5.532417-3.017682-8.550098v-0.502947c0-0.502947-0.502947-1.005894-0.502947-1.508841-1.005894-2.011788-1.508841-4.023576-2.514734-6.035364-0.502947-0.502947-0.502947-1.508841-1.005894-2.011787l-1.508841-3.017682-1.005894-3.017682c-0.502947-1.508841-1.508841-3.017682-2.011788-4.526522l-1.005894-2.514735-0.502947-1.005894c-1.508841-3.017682-2.514735-6.035363-4.023575-8.550098s-3.017682-6.53831-4.526523-9.555993l-1.005894-2.011787c-0.502947-1.508841-1.508841-3.017682-2.011788-4.023576l-2.514735-5.02947-1.005894-1.50884c-2.011788-4.023576-4.526523-8.047151-6.53831-12.070727l-1.508841-3.520629c-1.508841-3.017682-3.520629-5.532417-5.029469-8.550098-1.005894-1.508841-1.508841-2.514735-2.514735-4.023576l-9.053045-13.579568-0.502947-0.502947-3.520629-5.029469c-2.011788-3.017682-4.023576-6.035363-6.035363-8.550098s-5.02947-6.53831-7.544205-10.058939l-3.017681-3.520629-0.502947-1.508841-2.514735-3.017682c-2.011788-2.514735-4.023576-5.02947-6.538311-7.544204s-4.023576-5.02947-6.53831-7.041257-4.526523-5.02947-6.53831-7.041258l-7.041258-7.041257-3.017681-3.017682-0.502947-0.502947c-1.508841-1.005894-2.514735-2.514735-4.023576-3.520629-2.514735-2.011788-5.02947-4.526523-7.544204-6.53831l-4.023576-3.520629-3.017682-2.514734-0.502947-0.502947-5.532416-4.526523-2.011788-1.508841c-2.514735-2.011788-5.532417-4.023576-8.047151-6.035363l-2.011788-1.508841c-2.011788-1.508841-4.023576-2.514735-6.035364-4.023576l-1.005894 0.502947-3.520628-2.011788c-1.508841-1.005894-3.017682-2.011788-4.526523-2.514734l-2.514735-2.011788c-2.011788-1.005894-4.526523-2.514735-6.53831-3.520629l-1.508841-1.005894-3.520629-2.011788-3.017681-1.005894-2.011788-1.005893L571.096267 15.088409l-2.514735-1.005894-2.514734-1.508841-3.017682-1.508841-2.011788-0.502947-4.526522-1.508841-2.011788-1.005894h-0.502947c-2.514735-1.005894-4.526523-1.508841-7.041258-2.514734l-2.011787-0.502947c-1.508841-0.502947-3.520629-1.005894-5.02947-1.508841h-1.005894L535.88998 3.017682l-3.017681-0.502947h-1.508841l-3.017682-0.502947-2.514735-1.005894h-2.011788l-3.520628-0.502947H506.21611c-1.508841 0-3.017682 0-4.526523 0.502947h-3.520628c-2.011788 0.502947-4.023576 0.502947-6.538311 1.005894H490.624754c-2.011788 0.502947-3.520629 1.005894-5.532416 1.508841l-2.514735 0.502947c-1.005894 0.502947-2.011788 0.502947-3.520629 1.005894l-1.50884 0.502947-1.005894 0.502946c-2.011788 0.502947-4.023576 1.508841-6.035364 2.514735l-1.005894 0.502947-6.035363 3.017682-1.005894 0.502947-154.907662 90.027505 1.005894-0.502947 6.035363-3.017682 1.005894-0.502947c2.011788-1.005894 4.023576-2.011788 6.035364-2.514735l1.005894-0.502947 4.526522-1.50884 2.514735-0.502947c2.011788-0.502947 3.520629-1.005894 5.532416-1.508841h1.005894c2.011788-0.502947 4.526523-0.502947 6.538311-1.005894l2.011788-0.502947c2.011788 0 4.526523-0.502947 6.53831-0.502947h14.082515l3.520628 0.502947c1.508841 0 3.017682 0.502947 4.526523 0.502947l3.017682 0.502947 5.029469 1.005894 3.017682 0.502947 6.035363 1.508841 1.508841 0.502946c2.514735 1.005894 5.02947 1.508841 8.047152 2.514735l2.011787 1.005894c2.011788 0.502947 4.023576 1.508841 6.035364 2.514735l3.017682 1.508841 5.029469 2.514735 3.520629 1.50884 5.029469 2.514735 3.520629 2.011788 8.047151 4.526523 6.538311 4.023575 3.520628 2.011788 6.538311 4.526523 2.011788 1.508841c3.017682 2.011788 5.532417 4.023576 8.550098 6.035363l2.011788 1.508841c2.011788 1.508841 4.023576 3.017682 6.035363 5.029469l3.017682 2.514735c12.573674 10.561886 24.644401 21.626719 35.709234 33.697446l0.502947 0.502947c3.520629 4.023576 7.544204 8.550098 11.064833 12.573674 3.520629 4.023576 6.53831 8.550098 10.058939 12.573674l1.005894 1.508841c2.514735 3.017682 4.526523 6.53831 6.53831 9.555992l4.023576 5.532416c3.017682 4.526523 6.53831 9.555992 9.555992 14.082515l1.508841 2.514735c3.017682 4.526523 5.532417 9.555992 8.550098 14.082515s4.526523 8.047151 7.041257 12.573673l3.017682 6.035364c1.005894 1.508841 1.508841 3.520629 2.514735 5.029469 1.508841 3.017682 3.017682 6.53831 4.526522 9.555993l0.502947 0.502947c1.508841 3.520629 3.520629 7.544204 5.02947 11.064833l1.005894 2.514734 3.017682 7.544205 1.005893 3.017681c1.005894 2.514735 2.011788 5.532417 3.017682 8.550099 0 0.502947 0.502947 1.005894 0.502947 1.50884 1.005894 3.520629 2.514735 6.53831 3.520629 10.05894l1.005894 3.017681c1.005894 2.514735 1.508841 5.02947 2.011788 7.041258l1.005893 3.520628c0.502947 2.011788 1.508841 4.526523 2.011788 6.538311 0.502947 1.005894 0.502947 2.514735 1.005894 3.520628 0.502947 2.514735 1.508841 5.02947 2.011788 7.544205 0 1.005894 0.502947 1.508841 0.502947 2.514735 1.005894 3.520629 1.508841 6.53831 2.011788 10.058939 0 1.005894 0 1.508841 0.502947 2.514734l1.508841 7.544205c0 1.005894 0.502947 2.514735 0.502947 3.520628 0.502947 2.011788 0.502947 4.526523 1.005893 6.538311l0.502947 4.023575c0 2.011788 0.502947 4.023576 0.502947 6.538311 0 1.005894 0 2.514735 0.502947 3.520629 0 2.011788 0.502947 4.526523 0.502947 6.53831v13.579568l-0.502947 98.577603 154.907662-90.027505 0.502947-98.577603c-0.502947-3.017682-0.502947-6.035363-0.502947-9.053045z" fill="#F4E49C" p-id="6581"></path><path d="M496.157171 708.149312l154.907662-90.027505 117.18664 67.897839-154.907662 90.027505z" fill="#A0D0BB" p-id="6582"></path></svg>