<svg t="1715250178892" class="icon" viewBox="0 0 1024 1024" version="1.1" xmlns="http://www.w3.org/2000/svg" p-id="5828" width="200" height="200"><path d="M399.025596 586.563107l139.184466-80.889674-0.451898 211.488085-139.184466 80.889674zM586.563107 906.50662L725.747573 825.616946l-0.451898 117.493381-139.184466 80.889673z" fill="#85A4C9" p-id="5829"></path><path d="M398.573698 798.051192l139.184466-80.889674 187.989409 108.455428-139.184466 80.889674zM399.477493 468.617829l139.184466-80.889674L676.038835 467.262136l-139.184466 80.889673z" fill="#F7D78B" p-id="5830"></path><path d="M536.854369 548.151809L676.038835 467.262136l-0.451898 117.49338-139.184466 80.889674zM399.929391 257.129744L539.113857 176.240071l-0.451898 211.488084-139.184466 80.889674z" fill="#85A4C9" p-id="5831"></path><path d="M588.370697 248.091792l-0.451897 117.49338-187.989409-108.455428-0.451898 211.488085 137.376876 79.53398-0.451898 117.493381-137.376875-79.082083-0.451898 211.488085 187.989409 108.455428-0.451898 117.49338-289.666372-167.202118L298.704325 80.889673z" fill="#A0D0BB" p-id="5832"></path><path d="M588.370697 248.091792L727.555163 167.202118l-0.451897 117.493381-139.184466 80.889673z" fill="#85A4C9" p-id="5833"></path><path d="M298.704325 80.889673L437.888791 0l289.666372 167.202118-139.184466 80.889674z" fill="#F7D78B" p-id="5834"></path></svg>