<svg t="1715250202062" class="icon" viewBox="0 0 1024 1024" version="1.1" xmlns="http://www.w3.org/2000/svg" p-id="5978" width="200" height="200"><path d="M373.574414 404.359915l134.495522-77.727932-1.310021 479.904478-134.495523 78.164605z" fill="#F7D78B" p-id="5979"></path><path d="M276.196162 78.164606L410.691684 0l110.478465 63.754371-134.495522 78.164606z" fill="#48BCD0" p-id="5980"></path><path d="M386.674627 141.918977l134.495522-78.164606 128.818764 579.466098-134.495523 77.727932z" fill="#F7D78B" p-id="5981"></path><path d="M615.491684 273.794456L749.987207 196.066525l-2.183369 749.768869-134.495522 78.164606z" fill="#F7D78B" p-id="5982"></path><path d="M517.240085 217.026866l134.058849-77.727932 98.688273 56.767591-134.495523 77.727931z" fill="#48BCD0" p-id="5983"></path><path d="M615.491684 273.794456l-2.183368 750.205544-105.675054-61.134328L373.574414 404.359915l-1.310022 480.341151-98.251599-56.767591L276.196162 78.164606l110.478465 63.754371 128.818763 579.029424 1.746695-503.921535z" fill="#EC949E" p-id="5984"></path></svg>