<svg t="1715250073103" class="icon" viewBox="0 0 1024 1024" version="1.1" xmlns="http://www.w3.org/2000/svg" p-id="5382" width="200" height="200"><path d="M473.780777 869.615459c1.005336-0.502668 1.508004-1.005336 2.51334-1.508004l154.821711-89.977553c-1.005336 0.502668-1.508004 1.005336-2.513339 1.508003l-1.005336 0.502668-2.010672 0.502668-1.508003 0.502668-1.005336 0.502668-2.010672 0.502668h-1.005335c-1.005336 0-2.010672 0.502668-3.016008 0.502668H606.485101l-1.508003-0.502668h-1.005336l-2.513339-0.502668-3.016008-1.005336-1.005336-0.502668-2.010671-1.005336-1.005336-0.502667-2.010672-1.005336-1.005335-0.502668-2.010672-1.005336-1.508004-0.502668-3.016007-1.508004c-2.010672-1.508004-4.524011-2.513339-6.534683-4.021343l-6.032014-4.524011-0.502668-0.502668c-2.010672-1.508004-4.021343-3.016007-5.529347-5.026679l-0.502668-0.502667c-2.010672-1.508004-3.518675-3.518675-5.529347-5.026679l-0.502668-0.502668c-2.010672-2.010672-3.518675-4.021343-5.026679-6.032015v-0.502668c-2.010672-2.010672-3.518675-4.524011-5.026679-6.534683-1.508004-2.010672-3.016007-4.524011-4.524011-6.534682l-1.005336-1.508004c-1.508004-2.513339-3.016007-4.524011-4.524011-7.03735v-0.502668c-1.005336-1.508004-2.010672-3.518675-3.016007-5.026679l-1.005336-1.508004c-0.502668-0.502668-0.502668-1.508004-1.005336-2.010672l-2.010671-3.518675-0.502668-1.508004-1.508004-3.016007v-0.502668c-0.502668-1.005336-1.005336-2.513339-1.508003-3.518675 0-0.502668 0-0.502668-0.502668-1.005336l-1.005336-3.016007-0.502668-1.005336c-0.502668-1.005336-1.005336-2.513339-1.508004-3.518675-0.502668-1.005336-1.005336-2.513339-1.005335-3.518676 0-0.502668 0-1.005336-0.502668-1.005335 0-1.005336-0.502668-1.508004-0.502668-2.51334l-0.502668-1.508003c0-1.005336-0.502668-1.508004-0.502668-2.51334v-1.005336l-1.005336-3.518675-0.502668-3.518675v-1.005336c0-1.005336 0-1.508004-0.502668-2.51334v-1.508003-2.51334-4.021343-1.508004-3.518675l1.508004-472.005153v-3.518676-0.502667-3.016008-1.005336-2.010671-1.508004-2.010671l0.502668-1.508004c0-0.502668 0-1.005336 0.502668-1.508004l0.502668-1.508004c0-0.502668 0-1.005336 0.502668-1.508003 0-1.005336 0.502668-1.508004 1.005335-2.51334V165.880405l1.508004-3.016007 0.502668-0.502668c0.502668-1.005336 1.005336-2.513339 2.010672-3.518675 0.502668-1.005336 1.508004-2.010672 2.010671-3.016008l0.502668-0.502667c0.502668-1.005336 1.508004-1.508004 2.51334-2.51334l2.513339-2.513339 0.502668-0.502668c1.005336-0.502668 2.010672-1.508004 3.016007-2.010672L385.311228 238.264582c-1.005336 0.502668-2.010672 1.005336-3.016008 2.010672l-0.502668 0.502668c-1.005336 0.502668-2.010672 1.508004-2.513339 2.513339l-2.51334 2.51334-0.502668 0.502668c-0.502668 1.005336-1.508004 2.010672-2.010671 3.016007-0.502668 1.005336-1.508004 2.513339-2.010672 3.518675v1.005336c-0.502668 1.005336-1.508004 2.010672-2.010671 3.518675v0.502668c-0.502668 1.005336-0.502668 1.508004-1.005336 2.51334l-0.502668 1.005335c0 0.502668-0.502668 1.005336-0.502668 1.508004v2.010672l-0.502668 1.508003v13.572034l-1.508003 472.005153V768.579212c0 1.005336 0.502668 2.010672 0.502667 3.016007 0 1.005336 0.502668 2.010672 0.502668 3.016007V776.11923c0 0.502668 0 1.005336 0.502668 1.508004s0 0.502668 0 1.005336 0 1.005336 0.502668 1.508003 0 0.502668 0 1.005336l0.502668 1.508004c0 0.502668 0 1.005336 0.502668 1.005336v0.502667c0.502668 1.005336 0.502668 2.010672 1.005336 3.016008 0.502668 1.005336 0.502668 2.010672 1.005336 3.016007v0.502668c0 0.502668 0 0.502668 0.502667 1.005336 0 0.502668 0.502668 1.005336 0.502668 1.508004s0.502668 1.005336 0.502668 1.508003l0.502668 1.005336v0.502668l1.508004 3.016007v0.502668l1.005336 2.51334 0.502667 0.502668 0.502668 1.508003c0 0.502668 0.502668 1.005336 0.502668 1.508004 0 0.502668 0.502668 0.502668 0.502668 1.005336l1.005336 2.010671 0.502668 1.005336 0.502668 0.502668c1.005336 2.010672 2.010672 3.518675 3.016007 5.026679 1.508004 2.513339 3.016007 5.026679 4.524011 7.03735l1.005336 1.508004 1.005336 1.508004c1.005336 2.010672 2.513339 3.518675 3.518675 5.026679l2.51334 3.518675 2.513339 3.016007v1.005336l2.010672 2.010672c0.502668 0.502668 1.508004 2.010672 2.513339 2.513339l1.005336 1.005336 0.502668 0.502668 1.005336 1.005336c1.005336 1.005336 1.508004 2.010672 2.513339 2.513339l1.508004 1.508004 0.502668 0.502668 0.502667 0.502668 3.016008 2.513339 2.513339 2.010672h0.502668l3.016008 2.010671 3.016007 2.010672 2.513339 2.010671 3.016008 2.010672 0.502668 0.502668 2.513339 1.508004h0.502668l1.508004 0.502668 1.005336 0.502667 0.502667 0.502668 1.508004-1.508003 1.005336 0.502668 1.005336 0.502667 1.005335 0.502668 0.502668 0.502668 1.508004 0.502668 1.005336 0.502668 2.513339 1.005336h0.502668l2.010672 0.502668H460.711412c1.005336 0 2.010672 0 3.016007-0.502668h1.005336l2.010672-0.502668 1.005335-0.502668 1.005336-0.502668h0.502668l1.508004-0.502668 3.016007 3.016008z" fill="#ECB7B5" p-id="5383"></path><path d="M769.349499 326.231464v-1.005336-3.518675c0-1.508004 0-3.518675-0.502667-5.026679v-1.508004l-0.502668-3.518675-0.502668-4.021343-0.502668-2.51334c0-1.508004-0.502668-2.513339-0.502668-4.021343l-0.502668-2.513339c0-1.508004-0.502668-2.513339-0.502668-4.021343s-0.502668-2.513339-0.502668-3.518676v-1.508003c-0.502668-2.010672-1.005336-4.524011-1.005335-6.534683 0-0.502668 0-1.508004-0.502668-2.010672v-0.502668c-0.502668-3.016007-1.005336-6.032015-2.010672-9.048022v-1.005335c0-1.005336-0.502668-2.010672-0.502668-2.51334-0.502668-2.010672-1.005336-3.518675-1.508004-5.529347 0-0.502668-0.502668-1.508004-0.502667-2.010671l-1.005336-3.518676-1.005336-3.518675c-0.502668-1.005336-0.502668-2.010672-1.005336-3.518675l-1.005336-3.518675c0-0.502668-0.502668-1.508004-0.502667-2.010672-0.502668-2.010672-1.005336-4.021343-2.010672-5.529347l-1.005336-2.513339v-0.502668c-1.005336-3.016007-2.010672-5.529347-3.016007-8.545354l-0.502668-1.005336c0-1.005336-0.502668-1.508004-1.005336-2.51334l-2.010671-5.026679-1.005336-2.513339-1.508004-3.016007 0.502668-2.010672c-0.502668-1.508004-1.508004-3.518675-2.010672-5.026679-0.502668-1.005336-0.502668-1.508004-1.005335-2.513339 0-0.502668-0.502668-0.502668-0.502668-1.005336-1.508004-3.016007-2.513339-6.032015-4.021343-8.545354v-0.502668l-1.508004-2.51334-3.016008-6.032015c0-0.502668-0.502668-1.005336-0.502667-1.508003-1.005336-2.010672-2.010672-4.021343-3.016008-5.529347l-2.010671-4.021343-1.005336-2.010672-1.005336-2.010671c-2.010672-3.518675-3.518675-6.534683-5.529347-10.053358l-1.508004-2.51334-1.508003-3.016007c-1.508004-3.016007-3.518675-5.529347-5.026679-8.545354l-4.021343-5.026679c-1.508004-2.513339-3.518675-5.529347-5.026679-8.042687-0.502668-1.005336-1.005336-2.010672-1.508004-2.513339s-1.005336-1.508004-1.508004-2.010672l-2.010671-2.513339-5.026679-7.037351-1.508004-2.010671-0.502668-1.005336-3.518675-5.026679-3.518675-4.524011s0-0.502668-0.502668-0.502668c-2.010672-2.513339-4.524011-5.529347-6.534683-8.042686-1.005336-1.508004-2.010672-2.513339-3.518675-4.021344l-0.502668-1.005335-2.513339-2.51334c-2.010672-2.513339-4.524011-5.026679-6.534683-7.03735l-1.508004-1.508004s-0.502668 0-0.502668-0.502668c-1.508004-2.010672-3.518675-3.518675-5.026679-5.529347s-3.518675-3.518675-5.026679-5.026679l-0.502667-0.502668-1.508004-1.508003c-2.513339-2.513339-5.026679-4.524011-7.540019-7.037351l-0.502667-1.005336-1.508004-1.508003-5.026679-3.518676c-1.508004-1.508004-3.518675-3.016007-5.026679-4.021343l-1.508004-1.508003-1.508003-1.005336c-2.513339-2.010672-5.529347-4.021343-8.042687-6.032015l-1.508003-1.005336-2.010672-1.508003-4.524011-3.518676-4.524011-3.016007-2.010672-1.508004-1.508003-1.005336c-3.016007-1.508004-5.529347-3.518675-8.545355-5.026678l-2.010671-1.005336c-2.010672-1.508004-4.021343-2.513339-6.534683-3.518676l-1.508004-1.005335-3.518675-1.508004-2.513339-2.010672-2.010672-1.005335-3.016007-1.508004-2.010672-1.005336-3.016007-1.508004-3.016008-1.508003H561.244991l-5.026679-2.010672-2.010672-0.502668h-0.502668l-7.03735-2.513339H546.164954l-1.508004-0.502668-4.524011-1.508004-1.005335-0.502668H536.111596l-3.016007-0.502668c-0.502668 0-1.005336 0-1.508004-0.502667l-3.016007-0.502668-2.51334-0.502668h-2.010671l-3.518676-0.502668H500.924843c-2.513339 0.502668-5.026679 0.502668-8.042686 1.005336h-1.005336l-1.508003 0.502668-5.026679 1.508003-2.51334 1.005336c-1.005336 0-2.010672 0-3.016007 0.502668l-1.005336 0.502668c-1.508004 0.502668-3.518675 1.508004-5.026679 2.010671l-2.513339 1.005336c-2.513339 1.005336-5.026679 2.513339-7.037351 3.518675l-1.005336 0.502668-77.913523 45.240111-77.410856 44.737443 1.005336-0.502668c2.513339-1.508004 5.026679-2.513339 7.03735-3.518676 0.502668-0.502668 1.508004-0.502668 2.51334-1.005335 1.508004-0.502668 3.518675-1.508004 5.026678-2.010672 1.508004-0.502668 2.513339-1.005336 4.021344-1.508004l2.513339-0.502668 5.026679-1.508003 1.508004-0.502668h1.005336c2.513339-0.502668 5.026679-1.005336 8.042686-1.005336H365.204512l3.518675 0.502668 4.524011 0.502668 3.016007 0.502668 5.026679 1.005336 3.016008 0.502667c2.010672 0.502668 4.021343 1.005336 5.529347 1.508004l2.010671 0.502668c2.513339 0.502668 5.026679 1.508004 7.540019 2.51334l2.010671 0.502667c2.010672 0.502668 4.021343 1.508004 6.032015 2.51334l3.016007 1.508004 5.529347 2.513339 3.016008 1.508004c1.508004 1.005336 3.518675 1.508004 5.026679 2.513339l3.518675 2.010672c2.513339 1.508004 5.026679 3.016007 8.042686 4.524011 4.021343 2.513339 8.042686 4.524011 12.06403 7.03735l2.513339 1.508004c3.016007 2.010672 6.534683 4.021343 9.55069 6.534683l2.010672 1.508003c3.518675 2.513339 7.037351 5.529347 10.556025 8.042687l2.010672 1.508003 9.048022 7.540019 1.508004 1.508004c3.518675 3.016007 6.534683 6.032015 10.053358 9.55069l1.508003 1.508003c3.016007 3.016007 6.534683 6.534683 9.55069 10.053358l0.502668 0.502668c3.518675 3.518675 6.534683 7.037351 10.053358 11.058694l1.508004 1.508003c3.518675 4.021343 6.534683 7.540018 9.55069 11.561362l3.518675 4.524011 4.021343 5.529347 1.508004 2.010671c1.508004 2.513339 3.518675 4.524011 5.026679 7.037351l2.010672 2.513339 3.016007 4.524012c1.508004 2.513339 3.518675 5.529347 5.026679 8.042686 1.005336 1.508004 2.010672 3.016007 2.513339 4.524011 1.508004 3.016007 3.518675 5.529347 5.026679 8.545354 1.005336 2.010672 2.010672 3.518675 3.518676 5.529347 2.010672 3.518675 4.021343 6.534683 5.529346 10.053358l1.005336 2.010671 3.016008 6.032015 3.016007 5.529347c1.005336 2.513339 2.513339 5.026679 3.518675 7.540018l1.508004 3.016008c1.508004 3.518675 3.016007 6.534683 4.524011 10.053358 0.502668 1.005336 0.502668 1.508004 1.005336 2.513339 1.005336 2.513339 2.010672 5.026679 3.518675 8.042687l1.508004 3.016007 3.016007 8.042686c0 1.005336 0.502668 1.508004 1.005336 2.51334 1.005336 3.518675 2.513339 6.534683 3.518675 10.053358 0.502668 1.005336 0.502668 1.508004 1.005336 2.513339L601.458423 336.78749c0.502668 1.005336 0.502668 2.513339 1.005335 3.518675 0.502668 2.010672 1.508004 4.524011 2.010672 6.534683 0.502668 1.005336 0.502668 2.513339 1.005336 3.518675l1.508003 7.540018c0 1.005336 0.502668 2.010672 0.502668 3.016008 1.005336 3.518675 1.508004 6.534683 2.010672 10.053358l0.502668 2.010671c0.502668 2.513339 1.005336 5.529347 1.508003 8.042687 0 1.005336 0.502668 2.010672 0.502668 3.518675 0.502668 2.010672 0.502668 4.524011 1.005336 6.534682 0 1.508004 0.502668 2.513339 0.502668 4.021344 0 2.010672 0.502668 4.021343 0.502668 6.534682 0 1.508004 0 2.513339 0.502668 3.518675 0 2.010672 0.502668 4.524011 0.502668 6.534683v13.572033l-1.508004 470.999818V907.818219c0 3.016007-0.502668 5.529347-0.502668 8.545354 0 1.005336 0 2.010672-0.502668 3.016007 0 2.010672-0.502668 4.021343-0.502668 6.032015s-0.502668 2.513339-0.502668 4.021343-0.502668 3.518675-1.005335 5.026679-0.502668 3.016007-1.005336 4.021343-0.502668 3.016007-1.005336 4.524011-1.005336 3.016007-1.005336 4.524011-1.005336 2.513339-1.005336 4.021343c-1.005336 2.513339-1.508004 5.026679-2.513339 7.037351 0 0.502668 0 1.005336-0.502668 1.508004v0.502668c-1.005336 2.010672-1.508004 4.021343-2.513339 6.032014l-0.502668 1.508004c-0.502668 1.508004-1.508004 3.518675-2.51334 5.026679-0.502668 0.502668-0.502668 1.508004-1.005336 2.010672-1.005336 2.010672-2.513339 4.021343-3.518675 6.032014l-0.502668 0.502668c-1.005336 1.508004-2.010672 3.518675-3.518675 5.026679l-1.508004 1.508004c-1.005336 1.508004-2.010672 2.513339-3.016007 4.021343s-1.005336 1.005336-1.508004 1.508004l-4.524011 4.524011-0.502668 0.502668c-1.508004 1.508004-3.016007 3.016007-4.524011 4.021343l-1.508003 1.508003c-1.508004 1.005336-2.513339 2.010672-4.021344 3.016008l-1.508003 1.005336c-2.010672 1.508004-3.518675 2.513339-5.529347 3.518675l154.821712-89.977553c2.010672-1.005336 4.021343-2.513339 5.529346-3.518676l1.508004-1.005335c1.508004-1.005336 2.513339-2.010672 4.021343-3.016008l1.508004-1.508003c1.508004-1.508004 3.016007-2.513339 4.524011-4.021344l0.502668-0.502668 4.524011-4.524011 1.508004-1.508003c1.005336-1.005336 2.010672-2.513339 3.016007-4.021343l1.005336-1.508004c1.005336-1.508004 2.513339-3.016007 3.518675-5.026679l0.502668-0.502668c1.005336-2.010672 2.513339-4.021343 3.518675-6.032015 0.502668-0.502668 0.502668-1.508004 1.005336-2.010671s1.005336-2.010672 1.508004-3.518676 0.502668-1.005336 0.502668-1.508003l0.502668-1.508004c1.005336-2.010672 1.508004-4.021343 2.513339-6.032015v-0.502668c0-0.502668 0-0.502668 0.502668-1.005335 1.005336-2.513339 1.508004-4.524011 2.513339-7.037351v-0.502668c0.502668-1.005336 0.502668-2.010672 1.005336-3.016007s1.005336-3.016007 1.508004-4.524011v-1.005336c0.502668-1.005336 0.502668-2.513339 1.005336-3.518675s0.502668-2.513339 1.005335-4.021343v-1.005336c0.502668-1.508004 0.502668-3.016007 0.502668-4.021343l0.502668-4.021344v-0.502667c0-1.508004 0.502668-3.518675 0.502668-5.529347s0-2.010672 0.502668-3.016008v-0.502668c0-2.513339 0.502668-5.529347 0.502668-8.042686v-1.005336-10.053358l1.508004-470.999817c0.502668-4.524011 0.502668-7.540018 0.502667-10.556026z" fill="#ECB7B5" p-id="5384"></path><path d="M562.752995 248.820608c34.684085 60.822815 52.277461 119.132291 51.774793 175.933763l-1.508004 470.999818c0 57.30414-17.593376 96.009568-53.282797 116.116284-35.186753 19.604048-77.913524 15.582705-127.174977-13.069365-49.764122-28.65207-91.988225-73.389513-126.67231-133.70966S254.617575 745.456488 254.617575 688.655016l1.508004-470.49715c0-57.30414 17.593376-96.009568 53.282796-115.613615s77.410856-15.582705 126.67231 12.566697c49.261454 28.65207 91.988225 73.389513 126.67231 133.70966zM495.395497 826.38602l1.508003-472.005154c-0.502668-22.620055-7.037351-44.234775-18.598712-63.838823-10.556026-19.604048-26.641398-36.192088-45.742778-48.256118-18.096044-10.556026-33.176081-12.064029-46.245447-5.026679s-19.10138 21.112052-19.604048 41.721436l-1.508003 472.507821c0.502668 22.620055 7.037351 44.737443 19.10138 63.838823 11.058694 20.106716 26.641398 36.694756 46.245446 48.256118 18.096044 10.556026 33.176081 12.064029 45.742779 4.524011 12.566697-7.037351 19.10138-21.112052 19.10138-41.721435" fill="#978DAD" p-id="5385"></path></svg>