<svg t="1715250126642" class="icon" viewBox="0 0 1024 1024" version="1.1" xmlns="http://www.w3.org/2000/svg" p-id="5529" width="200" height="200"><path d="M369.145679 696.825679l155.749136-90.516543-1.011358 327.174321-155.749136 90.516543z" fill="#F4E49C" p-id="5530"></path><path d="M481.912099 612.882963c1.011358-0.505679 2.022716-1.011358 2.528395-1.517037L640.18963 520.849383c-1.011358 0.505679-2.022716 1.011358-2.528395 1.517037l-1.011358 0.505679-2.022717 1.011358-1.517037 0.505679-1.011358 0.505679-1.517037 0.505679H628.559012c-1.011358 0-1.517037 0.505679-2.528395 0.505679h-10.11358l-1.517037-0.505679H613.388642l-2.022716-0.505679h-1.011358l-3.034074-1.011358h-0.505679l-2.528395-1.011358-1.011358-0.505679-2.022716-1.011358-1.011358-0.505679-2.022716-1.011358-1.517037-0.505679-3.034075-1.517037-68.266666-40.96-155.749136 90.516543 68.772346 39.442963 2.528395 1.517037 0.505679 0.505679 1.011358 0.505679 1.011358 0.505679 1.011358 0.505679 1.011358 0.505679 1.011358 0.505679 1.011358 0.505679 1.011358 0.505679h0.505679l2.022716 0.505679h0.505679l2.528395 1.011358h1.011358l1.517037 0.505679h14.159012c1.011358 0 1.517037 0 2.528396-0.505679H474.832593l1.517037-0.505679 1.011358-0.505679H478.878025l2.022716-1.011358 1.011358 1.011358z" fill="#A0D0BB" p-id="5531"></path><path d="M370.157037 289.754074l155.749136-90.516543-0.505679 277.617778-155.749136 90.516543z" fill="#F4E49C" p-id="5532"></path><path d="M568.888889 330.714074c29.835062 53.096296 45.511111 112.76642 45.511111 173.447901l-0.505679 125.914074c0 57.141728-17.698765 96.079012-52.590617 116.811852-34.891852 20.73284-76.86321 16.687407-126.419753-12.136296l-65.738272-37.925926-1.011358 326.668642L254.356543 958.261728 256.884938 90.516543 436.400988 194.180741c56.13037 32.363457 101.641481 79.897284 132.487901 136.533333z m-65.232593 238.680494l0.505679-126.925432c0-22.755556-6.068148-45.511111-17.698765-64.726914-11.124938-20.22716-27.306667-36.408889-47.028148-48.039506L370.662716 290.259753l-1.011358 277.617778 68.772346 39.442963c18.204444 10.619259 33.374815 12.136296 46.01679 4.551111s19.215802-21.744198 19.215802-42.477037" fill="#85A4C9" p-id="5533"></path><path d="M769.643457 402.520494V399.48642c0-2.528395 0-5.562469-0.505679-8.090864v-0.505679c0-2.022716-0.505679-4.045432-0.505679-6.573828s0-3.034074-0.505679-4.045432c-0.505679-3.539753-1.011358-7.079506-1.011358-10.619259 0-0.505679 0-1.517037-0.505679-2.022716-0.505679-2.528395-1.011358-5.562469-1.011358-8.090864V359.032099c0-1.011358-0.505679-2.528395-0.505679-3.539753s-0.505679-4.045432-1.011358-6.068148v-1.011358c0-1.517037-0.505679-2.528395-1.011358-4.045433s-0.505679-3.034074-1.011358-4.551111c0-0.505679 0-1.011358-0.505679-1.517037s-0.505679-2.528395-1.011358-4.045432-0.505679-2.528395-1.011358-3.539753l-0.505679-2.528395-1.011358-4.551111-1.011359-2.528395c-0.505679-1.011358-0.505679-2.528395-1.011358-3.539753s-0.505679-3.034074-1.011358-4.045432-0.505679-1.011358-0.505679-2.022716c-0.505679-1.517037-1.011358-3.539753-1.517037-5.56247 0-1.011358-0.505679-2.022716-1.011358-2.528395s0-0.505679 0-0.505679c-1.011358-3.034074-2.022716-5.562469-3.034074-8.596543v-0.505679s-0.505679-1.517037-0.505679-2.022716c-0.505679-2.022716-1.517037-4.045432-2.022716-5.562469-0.505679-0.505679-0.505679-1.517037-1.011358-2.022716s-1.011358-2.022716-1.011358-3.034074l-1.517037-3.034074-2.022716-4.551111-1.011358-2.022716-0.505679-1.011358c-1.011358-2.528395-2.528395-5.562469-3.539753-8.090865v-0.505679l-1.011358-2.022716-3.034074-6.068148c0-0.505679-0.505679-1.011358-0.505679-1.517037l-3.034074-4.551111-2.022716-4.045432-1.517037-3.539753c-1.517037-2.528395-3.034074-5.05679-4.045432-7.585185l-1.011358-1.517037c-1.011358-2.022716-2.528395-4.045432-3.539754-6.068149l-3.034074-5.05679c-1.517037-2.022716-2.528395-4.045432-4.045432-6.068148l-2.528395-3.539753-0.505679-1.011358c-2.528395-4.045432-5.562469-8.090864-8.596543-11.630617l-0.505679-0.505679c-2.022716-2.528395-4.045432-5.05679-6.068148-8.090864l-0.505679-0.505679-6.068148-7.585186-1.011358-1.011358-2.022716-2.528395-3.034074-3.539753-2.022716-2.022716c-1.011358-1.011358-1.517037-2.022716-2.528396-2.528395s-1.011358-1.517037-2.022716-2.022716-2.022716-2.528395-3.539753-3.539753-1.517037-1.517037-2.528395-2.528395l-1.011358-1.011358-7.079506-7.079506c-2.022716-2.022716-5.05679-5.05679-7.585185-7.079506l-1.517037-1.517037c-2.022716-2.022716-4.045432-4.045432-6.573827-5.56247l-2.022716-1.517037-1.011358-1.517037-5.56247-4.551111-2.022716-1.517037-2.528395-2.022716c-1.517037-1.011358-3.034074-2.528395-4.551111-3.539753l-1.517037-1.517037-3.539753-2.528395c-1.517037-1.011358-2.528395-2.022716-4.045432-3.034074L613.388642 116.306173l-4.551111-3.034074-4.045432-2.022716-1.517037-0.505679-5.05679-3.034074-3.539753-2.022716-2.528396-1.517037L412.634074 0 256.884938 90.516543 436.400988 194.180741l6.068148 3.539753 5.05679 3.539753c1.517037 1.011358 3.539753 2.022716 5.05679 3.539753l4.551111 3.034074c2.022716 1.011358 3.539753 2.528395 5.562469 4.045432l4.045432 2.528395 6.068149 4.551111 3.034074 2.528395 6.573827 5.056791 2.022716 2.022716c2.528395 2.022716 5.05679 4.551111 8.090864 7.079506l0.505679 0.505679c5.562469 5.05679 11.630617 10.619259 16.687407 16.181728l2.528396 2.528395 5.05679 5.562469 2.528395 2.528395 5.05679 6.068149 2.022716 2.528395c2.528395 2.528395 4.551111 5.562469 7.079506 8.596543l0.505679 0.505679c2.022716 2.528395 4.045432 5.562469 6.573827 8.596543 3.034074 4.045432 5.562469 7.585185 8.596543 11.630617l3.034074 4.551111 4.045433 6.068149 3.034074 5.05679c1.517037 2.022716 2.528395 4.045432 3.539753 6.068148 1.517037 3.034074 3.539753 6.068148 5.05679 9.102222s2.528395 5.05679 4.045432 7.079506l2.528395 4.551111 3.539753 7.585186c0.505679 0.505679 0.505679 1.517037 1.011358 2.022716 1.517037 3.034074 3.034074 6.573827 4.045432 9.607901 0.505679 1.011358 0.505679 1.517037 1.011358 2.528395 1.011358 2.528395 2.022716 5.05679 3.034074 7.079506 0.505679 1.011358 1.011358 2.022716 1.011358 3.034074 1.011358 2.528395 2.022716 5.05679 3.034074 8.090864 0.505679 0.505679 0.505679 1.517037 0.505679 2.022716 1.011358 3.034074 2.528395 6.573827 3.539754 9.607902 0.505679 1.011358 0.505679 2.022716 1.011358 2.528395l2.022716 7.079506 1.011358 4.045432c0.505679 2.022716 1.011358 4.045432 1.517037 6.573827 0.505679 1.517037 1.011358 2.528395 1.011358 4.045432s1.011358 4.045432 1.517037 6.068148 0.505679 2.528395 1.011358 4.045432c0.505679 2.022716 1.011358 4.045432 1.517037 6.573828 0.505679 1.517037 0.505679 2.528395 1.011358 4.045432 0.505679 2.528395 1.011358 4.551111 1.517037 7.079506l0.505679 3.539753c0.505679 3.034074 1.011358 5.562469 1.011358 8.596543l0.505679 2.022716c0.505679 3.539753 1.011358 7.079506 1.011358 10.61926 0 1.517037 0.505679 3.034074 0.505679 4.551111s0.505679 4.551111 0.505679 6.573827 0.505679 5.562469 0.505679 8.090864V505.173333l-0.505679 125.914074V642.718025c0 3.034074-0.505679 5.562469-0.505679 8.596543 0 1.011358 0 2.022716-0.505679 3.539753 0 2.022716-0.505679 4.045432-0.505679 6.068148s-0.505679 2.528395-0.505679 4.045432-0.505679 3.539753-1.011358 5.05679-0.505679 3.034074-1.011358 4.045432-0.505679 3.034074-1.011358 4.551112-1.011358 3.034074-1.517037 5.05679-0.505679 2.528395-1.011358 3.539753c-1.011358 2.528395-1.517037 5.05679-2.528395 7.585185l-0.505679 1.011358v0.505679c-1.011358 2.022716-1.517037 4.551111-2.528395 6.573827l-1.011358 1.517037c-0.505679 1.517037-1.517037 3.034074-2.528395 4.551111-0.505679 0.505679-0.505679 1.517037-1.011358 2.022716-1.011358 2.022716-2.528395 4.045432-3.539754 6.068149-1.011358 2.022716-2.528395 3.539753-4.045432 5.562469l0.505679 0.505679c-1.011358 1.517037-2.022716 2.528395-3.034074 4.045432l-1.517037 1.517037c-1.517037 1.517037-3.034074 3.034074-4.551111 5.05679-1.517037 1.517037-3.034074 3.034074-5.05679 4.551111l-1.517037 1.011358c-1.517037 1.011358-2.528395 2.022716-4.045432 3.034074l-1.517037 1.011358c-2.022716 1.517037-3.539753 2.528395-5.562469 3.539753l155.749136-90.516543c2.022716-1.011358 4.045432-2.528395 5.562469-3.539753l1.517037-1.011358c1.517037-1.011358 2.528395-2.022716 4.045432-3.034074l1.517037-1.517037c1.517037-1.517037 3.539753-3.034074 5.05679-4.551111 1.517037-1.517037 3.034074-3.034074 4.551111-5.05679l1.517037-1.517037c1.011358-1.517037 2.022716-2.528395 3.034074-4.045433l1.011358-1.517037c1.517037-1.517037 2.528395-3.539753 3.539753-5.562469 1.517037-2.022716 2.528395-4.045432 3.539753-6.068148l1.011358-2.022716c0.505679-1.011358 1.011358-2.022716 1.517037-3.539753 0-0.505679 0.505679-1.011358 0.505679-1.517037 0-0.505679 0.505679-1.011358 0.505679-1.517037 1.011358-2.022716 2.022716-4.045432 2.528396-6.573827V602.263704c1.011358-2.528395 1.517037-5.05679 2.528395-7.585185 1.011358-4.045432 0-0.505679 0-0.505679l1.011358-3.034075c0.505679-1.517037 1.011358-3.034074 1.517037-5.05679v-1.011358c0.505679-1.011358 0.505679-2.528395 1.011358-3.539753s0.505679-3.034074 1.011358-4.045432v-1.011358c0-1.517037 0.505679-3.034074 0.505679-4.045432s0.505679-2.528395 0.505679-4.045432v-0.505679c0-1.517037 0.505679-3.539753 0.505679-5.05679s0-2.022716 0.505679-3.539753v-0.505679c0.505679-2.528395 0.505679-5.562469 0.505679-8.090865v-1.011358-10.11358l0.505679-125.914074c1.517037-3.539753 1.517037-7.585185 1.517037-11.124938z" fill="#A0D0BB" p-id="5534"></path></svg>