<svg t="1715250270816" class="icon" viewBox="0 0 1024 1024" version="1.1" xmlns="http://www.w3.org/2000/svg" p-id="6426" width="200" height="200"><path d="M378.234234 605.350493l135.303304-78.634062-0.878593 284.224796-135.303304 78.634063zM538.138138 652.794509l135.303303-78.634063 72.044616 371.205491-134.864006 78.634063z" fill="#85A4C9" p-id="6427"></path><path d="M476.19734 532.427284c0.878593-0.439296 1.757186-0.878593 2.196482-1.317889L613.697126 452.475332c-0.878593 0.439296-1.757186 0.878593-2.196482 1.31789l-0.878593 0.439296-1.757186 0.878593-1.317889 0.439297-0.878593 0.439296-1.31789 0.439296H603.593308c-0.878593 0-1.317889 0.439296-2.196483 0.439297h-8.785928l-1.31789-0.439297H590.414414l-1.757185-0.439296h-0.878593l-2.635779-0.878593h-0.439296l-2.196482-0.878593-0.878593-0.439296-1.757186-0.878593-0.878593-0.439297c-0.439296-0.439296-1.317889-0.439296-1.757186-0.878592l-1.317889-0.439297-2.635779-1.317889-59.305019-35.583012-135.303303 78.634063 59.744315 34.265122 2.196483 1.317889 0.439296 0.439297 0.878593 0.439296 0.878593 0.439297 0.878593 0.439296 0.878593 0.439297 0.878592 0.439296 0.878593 0.439297 0.878593 0.439296h0.439297l1.757185 0.439296h0.439297l2.196482 0.878593h0.878593l1.317889 0.439297h11.861004c0.878593 0 1.317889 0 2.196482-0.439297h1.757186l1.317889-0.439296 0.878593-0.439297H473.561562l1.757185-0.878592 0.878593 0.878592z" fill="#F7D78B" p-id="6428"></path><path d="M379.112827 251.71686l135.303303-78.634063-0.439296 241.173745-135.303303 78.634063z" fill="#85A4C9" p-id="6429"></path><path d="M578.992707 611.500644l135.303303-78.634063c-1.757186 3.514372-3.514372 6.589447-5.710853 10.103818l-135.303304 78.634063c2.196482-3.075075 3.953668-6.589447 5.710854-10.103818" fill="#A59700" p-id="6430"></path><path d="M573.72115 621.604462L709.024453 542.970399c-7.028743 11.421707-16.693265 20.646933-28.114972 27.236379l-135.303303 78.634063c10.982411-6.589447 20.646933-15.814672 28.114972-27.236379" fill="#A19300" p-id="6431"></path><path d="M538.138138 652.794509l72.483913 371.205491L503.433719 962.059202l-59.305019-318.489918-8.785929-5.271558-57.108537-32.947233-0.878593 283.7855L278.513943 832.466752 280.710425 78.634063 436.660661 168.689833c55.351351 32.06864 95.766624 72.483912 121.245817 122.563706 22.843415 43.490347 33.825826 92.691549 33.825826 147.164307l-0.439297 109.384814c0 53.154869-18.011154 88.298584-53.154869 104.991849z m-43.051051-158.146718l0.439297-110.263407c0-43.929644-18.889747-76.43758-56.229945-98.402402L379.552124 251.71686l-0.878593 241.173745 59.744315 34.265122c15.814672 9.225225 28.993565 10.543115 39.975976 3.953668 10.982411-6.15015 16.693265-18.45045 16.693265-36.461604" fill="#A0D0BB" p-id="6432"></path><path d="M727.035607 359.783784v-15.375376c0-2.635779 0-5.271557-0.439296-7.907335v-1.757186c0-0.439296 0-1.317889-0.439297-2.196482 0-2.196482-0.439296-4.392964-0.439296-6.150151v-2.635778-1.757186l-1.31789-5.710854c0-0.878593 0-1.757186-0.439296-3.075075s0-0.878593-0.439296-1.317889c0-1.757186-0.439296-3.514372-0.878593-5.271557 0-0.878593-0.439296-2.196482-0.439297-3.075075v-1.31789l-0.878593-4.392964c0-1.317889-0.439296-2.196482-0.439296-3.514372l-0.439297-1.317889c-0.439296-1.317889-0.439296-2.635779-0.878592-4.392964s-0.439296-2.196482-0.878593-3.514372-0.439296-1.317889-0.439297-1.757186l-0.878593-3.953668c-0.439296-0.878593-0.439296-2.196482-0.878593-3.075075l-0.439296-2.196482c-0.439296-1.317889-0.439296-2.635779-0.878593-3.514371s-0.439296-1.757186-0.439296-2.196483l-0.878593-2.635778c-0.439296-1.317889-0.878593-2.196482-0.878593-3.514372s-0.439296-1.317889-0.439296-1.757185l-1.31789-3.953668c-0.439296-0.878593-0.439296-1.757186-0.878593-2.635779l-0.439296-0.878593c-0.878593-2.196482-1.317889-4.392964-2.196482-6.589447V246.006006c0-0.439296-0.439296-0.878593-0.439297-1.317889l-1.757185-4.832261-0.878593-1.757186c-0.439296-0.878593-0.439296-1.317889-0.878593-2.196482s-0.439296-1.317889-0.878593-2.196482l-1.757186-4.392965-0.439296-0.878593v-0.439296c-0.878593-1.757186-1.757186-3.953668-2.635779-5.710854l-0.439296-1.317889-0.878593-1.317889-1.31789-2.635779c-0.439296-0.878593-1.317889-2.635779-2.196482-3.953668l-1.317889-3.075075-1.317889-2.635779c-0.878593-1.757186-1.757186-3.514372-3.075076-5.271557-0.439296-0.439296-0.439296-1.317889-0.878592-1.757186s-1.317889-2.196482-2.196483-3.514371l-1.757185-3.075075-4.392965-6.589447c-0.439296-0.439296-0.878593-0.878593-0.878593-1.317889l-0.439296-0.878593c-0.878593-1.317889-1.757186-2.635779-2.635779-3.514372s-2.196482-3.075075-3.075075-4.392964l-1.317889-1.317889c-1.757186-2.196482-3.514372-4.392964-4.832261-6.589447-1.757186-2.196482-3.075075-3.953668-4.832261-5.710854s-3.075075-3.953668-4.832261-5.710853-3.514372-3.953668-5.271557-6.15015-3.953668-3.953668-5.710854-6.150151l-0.439296-0.439296c-0.439296-0.878593-1.317889-1.317889-1.757186-1.757186l-3.953668-3.953668-1.317889-1.317889-3.075075-2.635779-2.635779-2.635778-1.757185-1.757186-3.953668-3.075075-2.196483-2.196482-2.196482-1.31789-3.953668-3.075075c-0.878593-0.439296-1.317889-1.317889-2.196482-1.757186l-2.196482-1.757185-4.392965-3.514372-2.196482-1.757186-2.196482-1.757185-4.832261-3.514372-2.635778-1.757186-2.196483-1.317889c-1.757186-1.317889-3.514372-2.635779-5.710853-3.953668-0.878593-0.439296-1.757186-1.317889-2.635779-1.757186l-1.757186-1.317889-6.589446-3.953668-3.075075-1.757186-2.635779-1.757185L416.013728 0 280.710425 78.634063 436.660661 168.689833l5.710853 3.514371 6.589447 3.953668 4.392964 3.075075 5.710854 3.514372 4.392964 3.075075 4.832261 3.514371 4.392965 3.514372 4.392964 3.514371 4.392964 3.514372c1.317889 0.878593 2.635779 2.196482 3.953668 3.075075l4.392965 3.953668 3.514371 3.075075c1.317889 1.317889 3.075075 2.635779 4.392965 3.953668l3.075075 2.635779 6.15015 4.83226 2.196482 1.757186c2.196482 2.635779 4.392964 4.832261 6.589447 7.46804l0.439296 0.439296c2.196482 2.196482 4.392964 4.832261 6.15015 7.028743l0.439297 0.878593c4.392964 5.271557 8.346632 10.543115 12.3003 15.814672l3.953668 5.271557 2.635779 3.514372c0.439296 0.439296 0.878593 1.317889 1.317889 1.757185 1.317889 2.196482 2.635779 4.392964 4.392964 6.589447 0.439296 0.878593 1.317889 1.757186 1.757186 3.075075 0.878593 1.757186 2.196482 3.514372 3.075075 5.271557 0.878593 1.757186 2.196482 3.514372 3.075075 5.271558s2.196482 3.953668 3.075075 5.710853l3.514372 7.028743c0.439296 0.878593 0.878593 1.317889 0.878593 2.196482 1.317889 2.635779 2.196482 4.832261 3.514371 7.46804 0 0.439296 0.439296 0.878593 0.439297 0.878593l2.635778 6.589446c0.439296 0.878593 0.439296 1.317889 0.878593 2.196483l2.635779 6.589446c0 0.439296 0.439296 0.878593 0.439296 1.31789l2.635779 7.907335 0.878593 2.635779c0.439296 1.757186 1.317889 3.953668 1.757186 5.710854 0.439296 0.878593 0.878593 2.196482 0.878592 3.075075l1.31789 5.271557 0.878593 3.514372c0.439296 1.757186 0.878593 3.514372 1.317889 4.83226l0.878593 3.953668 0.878593 4.832261c0.439296 1.317889 0.439296 2.635779 0.878593 4.392965s0.439296 3.075075 0.878592 4.83226l0.878593 4.832261c0.439296 1.317889 0.439296 3.075075 0.878593 4.392965s0.439296 3.514372 0.878593 5.271557l0.439297 4.392964c0 1.757186 0.439296 3.953668 0.439296 5.710854s0.439296 3.075075 0.439296 4.392964c0 2.196482 0.439296 4.392964 0.439297 6.150151l0.439296 4.392964c0 2.635779 0.439296 5.271557 0.439297 7.907336V438.857143l-0.439297 109.384813v10.103818c0 2.196482-0.439296 4.832261-0.439296 7.028743 0 0.878593-0.439296 1.757186-0.439297 3.075075 0 1.757186-0.439296 3.514372-0.439296 5.271558s-0.439296 2.196482-0.439296 3.514371-0.439296 3.075075-0.878593 4.392965-0.439296 2.635779-0.878593 3.514371-0.439296 2.635779-0.878593 3.953668-0.878593 2.635779-0.878593 3.953668-0.439296 2.196482-0.878593 3.514372c-0.439296 1.757186-1.317889 3.514372-1.757186 5.271557-0.439296 0.878593-0.439296 1.317889-0.878592 2.196482 0 0.439296 0 0.439296-0.439297 0.878593-0.878593 1.757186-1.317889 3.514372-2.196482 4.832261l-0.439297 1.317889c-7.028743 15.814672-18.889747 29.432861-34.265122 38.21879l135.303303-78.634062c14.936079-8.785929 26.357786-21.525526 33.825826-36.900901 0-0.439296 0.439296-0.439296 0.439297-0.878593l0.439296-1.317889c0.878593-1.757186 1.317889-3.514372 2.196482-5.271558l0.439297-0.878593v-0.439296c0-0.439296 0.439296-1.317889 0.439296-1.757186 0.439296-1.757186 1.317889-3.514372 1.757186-5.271557v-0.878593c0.439296-0.878593 0.439296-1.757186 0.878593-2.635779s0.878593-2.635779 0.878593-3.953668v-0.878592c0-0.878593 0.439296-1.757186 0.439296-3.075075s0.439296-2.196482 0.878593-3.514372c0-0.439296 0-0.439296 0.439297-0.878593 0-1.317889 0.439296-2.196482 0.439296-3.514371l0.439296-3.514372v-0.878593c0-1.317889 0.439296-3.075075 0.439297-4.392964s0-1.757186 0.439296-3.075075v-0.439297c0-2.196482 0.439296-4.392964 0.439297-6.589446v-1.31789-8.785928l0.439296-109.384814 0.878593-0.439296z" fill="#F7D78B" p-id="6433"></path></svg>