<svg t="1715250220565" class="icon" viewBox="0 0 1024 1024" version="1.1" xmlns="http://www.w3.org/2000/svg" p-id="6128" width="200" height="200"><path d="M250.156387 642.051481l153.17727-89.021855 106.428363 53.214182-152.679941 88.524526z" fill="#ECB7B5" p-id="6129"></path><path d="M480.419621 878.77999c0.994658-0.497329 1.989315-0.994658 2.486644-1.491986l153.177271-89.021855-2.983973 1.491986-0.994658 0.497329-1.989315 0.994657-1.491986 0.497329-0.994658 0.497329-1.491986 0.497329h-1.989316c-0.994658 0-1.491986 0.497329-2.486644 0.497329h-10.941233l-1.989315-0.497329-0.994658-0.497329-1.989315-0.497329-0.994658-0.497329-1.989315-0.497328-0.994658-0.497329-1.989315-0.497329-0.994657-0.497329-1.989316-0.994657-0.994657-0.497329-1.989315-0.994658-1.491987-0.497329-2.983973-1.491986c-0.994658-0.497329-1.989315-0.994658-2.486644-1.491986s-1.989315-0.994658-2.983972-1.989316l-0.497329-0.497328-2.486644-1.491987-0.994658-0.497329-1.989315-1.491986-0.994658-0.497329-1.989315-1.491986-0.497329-0.497329-2.486644-2.486644-0.497328-0.497329-1.989316-1.989315-0.994657-0.994658c-0.497329-0.497329-0.994658-0.994658-1.491987-1.989315s-0.497329-0.497329-0.994657-0.994657l-1.989315-1.989316-0.497329-0.497328c-0.994658-0.994658-1.491986-1.989315-2.486644-2.983973l-0.497329-0.994658-1.491986-1.989315-1.491987-1.491986-1.491986-1.491987c-0.994658-1.491986-1.989315-2.983973-3.481302-4.475959l-0.497329-0.994658c-0.994658-0.994658-1.491986-2.486644-2.486644-3.481301s-0.497329-0.994658-0.994657-1.491987-1.491986-1.989315-1.989315-3.481301l-0.994658-1.491987c-0.994658-1.491986-1.989315-3.481302-2.983973-4.973288s-1.491986-2.983973-2.486644-4.475959l-0.994657-2.486644c-0.994658-1.989315-1.989315-3.97863-2.486644-5.470617l-0.497329-0.994657c-0.994658-1.491986-1.491986-3.481302-2.486644-4.973288 0-0.497329-0.497329-0.994658-0.497329-1.491987l-2.486644-5.967945v-0.497329c-0.994658-1.989315-1.491986-4.475959-2.486644-6.465274l-0.994658-2.486644-1.491986-4.47596-0.994658-2.983972c-0.497329-1.491986-0.994658-2.486644-1.491986-3.978631s-0.994658-2.486644-0.994658-3.97863-0.994658-2.486644-0.994657-3.978631-0.994658-2.983973-1.491987-4.973288l-0.994657-3.481301-1.491987-6.465275-0.497328-2.983972c-0.497329-2.983973-1.491986-6.465274-1.989316-9.946576 0-0.497329 0-1.491986-0.497328-1.989316l-1.491987-8.951918c0-0.994658-0.497329-1.989315-0.497329-2.983973-0.497329-3.481302-0.994658-7.459932-1.491986-10.941234v-0.994657-1.491987c-0.497329-2.486644-0.497329-4.973288-0.994658-6.962603l-0.497328-2.983973-0.994658-7.95726L354.595435 695.265663c0 1.491986 0 2.983973 0.497328 4.475959s0 2.486644 0.497329 3.481302l0.497329 2.983973c0 2.486644 0.497329 4.973288 0.994658 6.962603V716.153473c0.497329 3.97863 0.994658 7.459932 1.491986 10.941233v2.983973l1.491986 8.951918v1.989316c0.497329 3.481302 1.491986 6.465274 1.989316 9.946576v0.497328l0.497328 2.486644c0.497329 1.989315 0.994658 3.97863 1.491987 6.465275l0.497329 0.994657 0.497328 2.486644c0.497329 1.491986 0.994658 2.983973 1.491987 4.973288 0 0.497329 0 0.994658 0.497329 1.491987s0.497329 1.491986 0.497328 2.486644 0.497329 2.486644 0.994658 3.97863c0 0.497329 0.497329 0.994658 0.497329 1.491987l0.497329 2.486644 0.994657 2.983972 0.497329 1.491987c0.497329 0.994658 0.497329 1.989315 0.994658 2.983973s0.497329 1.491986 0.994657 2.486644l0.497329 0.497328 1.989315 5.470617v0.497329c0.497329 1.491986 0.994658 2.983973 1.989315 4.475959 0 0.497329 0.497329 0.994658 0.497329 1.491987s0.497329 0.994658 0.497329 1.491986l0.497329 1.989315c0.497329 0.994658 0.994658 1.989315 1.491986 3.481302 0 0.497329 0 0.497329 0.497329 0.994657v0.497329l2.486644 4.475959s0 0.497329 0.497329 0.497329 0.994658 1.491986 0.994658 2.486644l1.491986 2.486644 0.994658 1.989315c0.994658 1.989315 1.989315 3.481302 2.983972 4.973288v0.497329l0.497329 0.994658 1.989315 3.481301 0.994658 1.491987 2.486644 3.481301 0.497329 0.994658 2.983973 4.475959 0.497328 0.497329c0.497329 0.497329 0.497329 0.994658 0.994658 1.491986l1.491986 1.491987s0 0.497329 0.497329 0.497329c0.497329 0.497329 0.994658 0.994658 1.491987 1.989315l0.497328 0.994657c0.497329 0.994658 1.491986 1.491986 1.989316 2.486644l0.497328 0.497329 1.491987 1.491987 0.497329 0.497328 0.994657 0.994658 0.994658 0.994658 0.994657 0.994657 0.994658 0.994658 0.497329 0.497329 1.491986 1.491986 0.497329 0.497329 2.486644 1.989315 0.497329 0.497329 1.491986 1.491986 0.497329 0.497329 0.994658 0.497329 0.994657 0.497329 0.994658 0.497328 0.994657 0.497329 0.497329 0.497329 1.989315 0.994658h0.497329l2.486644 1.491986 0.497329 0.497329 1.989315 0.994657 0.994658 0.497329 2.983973 1.491987 1.491986 0.497328 1.491986 0.497329h0.497329l0.994658 0.497329 1.491986 0.497329h0.497329l0.994658 0.497329 0.994657 0.497328 0.994658 0.497329 0.994657 0.497329 0.994658 0.497329 0.994658 0.497329 0.994657 0.497328h0.497329l1.491986 0.497329H454.061195l1.491986 0.497329H469.478388c0.994658 0 1.491986 0 2.486644-0.497329h0.994657l0.994658-0.497329 1.491986-0.497328 0.994658-0.497329 0.994657-0.497329h0.497329c0.497329 0 1.491986-0.497329 1.989315-0.994658l0.497329 0.497329z" fill="#F4E49C" p-id="6130"></path><path d="M773.346285 804.677999v-2.983973-6.962603-7.957261-2.983973-5.967945-0.497329c0-2.486644-0.497329-4.973288-0.497329-7.459932v-1.491986l-0.497329-2.983973c0-1.491986 0-2.486644-0.497329-3.481302s0-1.989315-0.497329-2.983973-0.497329-2.486644-0.497328-3.97863l-0.497329-2.486644-0.994658-3.97863-0.994657-4.47596-0.497329-1.491986c0-1.491986-0.497329-2.983973-0.994658-4.475959s-0.994658-3.481302-0.994657-5.470617c0-0.497329 0-0.994658-0.497329-1.491986-0.497329-2.983973-1.491986-5.470617-1.989315-8.45459 0-0.497329 0-0.994658-0.497329-1.989315l-0.994658-2.983973c-0.497329-2.983973-1.491986-5.470617-1.989315-8.45459 0-0.497329-0.497329-0.994658-0.497329-1.491986-0.497329-1.989315-0.994658-3.97863-1.491986-5.470617s-1.491986-4.475959-1.989315-6.962603l-1.989316-5.967946-0.497328-0.994657c-0.497329-1.491986-0.994658-3.481302-1.491987-4.973288l-0.994657-2.486644-1.491987-4.475959-0.497329-1.491987c0-0.497329-0.497329-0.994658-0.497328-0.994657-0.497329-1.989315-1.491986-3.97863-1.989316-5.967946l-0.497328-1.989315-2.983973-7.957261v-0.497329l-1.491987-3.97863c0-0.497329-0.497329-1.491986-0.994657-1.989315-0.994658-1.989315-1.491986-4.475959-2.486644-6.465275s-1.491986-3.97863-1.989315-5.470617v-0.497329c-1.491986-3.97863-3.481302-7.957261-4.973288-11.935891l-0.497329-0.994657-0.497329-0.994658c-1.989315-4.475959-3.481302-8.45459-5.470617-12.930549 0-0.497329-0.497329-0.497329-0.497329-0.994657l-0.994657-1.989316c-0.497329-1.491986-0.994658-2.983973-1.989315-3.97863l-1.491987-3.97863-1.989315-3.978631c-0.497329-0.497329-0.497329-1.491986-0.994658-1.989315l-0.994657-1.491986-3.481302-6.465275c-0.497329-0.994658-0.994658-1.989315-1.491986-3.481301l-2.983973-6.465275c-0.497329-0.497329-0.497329-1.491986-0.994658-1.989315v-0.497329c-1.491986-3.481302-3.481302-6.962603-5.470616-10.443905l-1.491987-2.983972-4.475959-8.951919-0.994658-1.491986c0-0.497329-0.497329-0.497329-0.497328-0.994658l-2.983973-4.973288-1.989315-3.481301c-0.994658-1.989315-1.989315-3.481302-2.983973-5.470617l-1.989315-3.481302-3.481302-5.967945-1.491986-2.983973-4.973288-8.951919-1.491987-2.983972-0.497329-0.994658-0.994657-1.491986-0.497329-0.497329-0.994658-1.491987-0.994657-1.989315-0.994658-1.491986-1.491986-1.989315-0.994658-1.491987-1.491986-2.486644-0.994658-1.491986-1.491986-2.486644-0.994658-1.491987c-0.497329-0.994658-1.491986-1.989315-1.989315-3.481301l-0.994658-1.491987-2.983972-4.973288-0.497329-0.497328-2.983973-4.47596c-0.497329-0.497329-0.994658-0.994658-0.994658-1.491986l-1.989315-3.481302-1.491986-1.989315c-0.497329-0.994658-1.491986-1.989315-1.989315-3.481301l-1.491987-2.486644-1.989315-3.481302c-0.497329-0.994658-0.994658-1.491986-1.491987-2.486644s-1.491986-2.486644-2.486644-3.97863-0.994658-1.491986-1.491986-2.486644l0.994658-4.47596-1.491987-2.486644-2.983973-4.475959c-0.497329-0.994658-0.994658-1.491986-1.491986-2.486644l-4.475959-6.962603-7.459932-10.941234-1.491987-1.989315-6.465274-10.443905-0.994658-1.989315-6.465274-9.946576-0.497329-0.497329c-1.989315-2.983973-3.97863-6.465274-5.470617-9.449247-0.497329-0.497329-0.497329-0.994658-0.994657-1.491986l-4.973288-8.951919-0.994658-1.491986-4.973288-8.45459-0.497329-0.994657c-1.491986-2.983973-2.983973-5.470617-4.475959-8.45459-1.491986-2.983973-2.983973-5.967946-4.475959-8.45459s-2.486644-4.973288-3.481302-7.459932-2.983973-5.967946-3.97863-8.454589l-1.491986-3.481302c-0.994658-2.486644-2.486644-4.973288-3.481302-7.459932l-1.491986-3.481301c-0.994658-2.486644-1.989315-4.475959-2.983973-6.465275-0.497329-1.491986-0.994658-2.486644-1.491987-3.97863l-1.989315-4.973288c-0.497329-1.491986-1.491986-3.481302-1.989315-4.973288s-0.994658-2.486644-1.491986-3.978631-1.491986-3.481302-1.989316-5.470616l-1.491986-3.978631c-0.497329-1.989315-1.491986-3.481302-1.989315-5.470617l-0.994658-3.97863c-0.497329-1.491986-0.994658-3.481302-1.491986-4.973288s-0.497329-2.486644-0.994658-3.481302l-1.491986-4.973288-0.994658-3.481301c-0.497329-1.491986-0.994658-3.481302-1.491986-4.973288l-0.994658-3.481302c-0.497329-1.491986-0.994658-3.481302-0.994657-4.973288l-0.497329-2.983973c-0.497329-1.491986-0.497329-3.481302-0.994658-4.973288l-0.497329-2.486644c-0.497329-2.486644-0.994658-4.973288-0.994657-7.459932v-0.497328c-0.497329-2.486644-0.497329-4.475959-0.994658-6.962604v-1.989315c0-1.491986 0-3.481302-0.497329-4.973288v-1.989315-7.459932-5.967946-1.491986c0-1.989315 0-3.97863 0.497329-5.967946v-0.994657l0.497329-4.475959v-0.994658c0-1.491986 0.497329-3.481302 0.994658-4.973288v-0.994658c0-1.491986 0.497329-2.486644 0.994657-3.97863v-0.994658c0.497329-1.491986 0.497329-2.983973 0.994658-4.475959v-0.994657c0.497329-1.491986 0.994658-2.983973 1.491986-3.978631v-0.497329c0.497329-1.491986 1.491986-2.983973 1.989315-4.475959l0.497329-0.994657c0-0.497329 0.497329-0.994658 0.994658-1.491987l0.497329-0.994657 0.994657-1.491987 0.497329-0.994657 1.491986-2.486644c2.486644-3.481302 5.967946-6.465274 9.449248-8.951919L401.344342 228.771248c-3.97863 2.486644-6.962603 5.470617-9.449247 8.951919l-1.989315 2.486644-0.497329 0.994657-0.994658 1.491987v0.994657c-0.497329 0.497329-0.497329 0.994658-0.994657 1.491987v0.994657c-0.497329 1.491986-1.491986 2.983973-1.989316 4.475959v0.497329c-0.497329 1.491986-0.994658 2.486644-1.491986 3.978631v0.994657c-0.497329 1.491986-0.994658 2.983973-0.994658 4.475959v0.994658c-0.497329 1.491986-0.497329 2.486644-0.994657 3.97863v0.994658l-0.497329 4.973288V273.033511c0 1.491986-0.497329 2.983973-0.497329 4.47596V279.001457c0 1.989315 0 3.97863-0.497329 5.967946V310.333171c0 1.989315 0.497329 3.97863 0.497329 5.967946v0.497329l0.994658 6.465274v0.994658c0 0.497329 0 1.491986 0.497328 2.486644s0.497329 1.989315 0.497329 3.481301 0 0.994658 0.497329 1.989316l0.497329 2.983972c0 0.994658 0.497329 1.491986 0.497329 2.486644l0.497329 2.486644 0.497328 3.481302c0 0.497329 0 0.994658 0.497329 1.491986s0.497329 1.989315 0.994658 3.481302l0.994657 3.481302 0.497329 0.994657c0.497329 1.491986 0.497329 2.486644 0.994658 3.978631l0.994657 3.481301v0.994658l1.491987 4.475959 0.994657 3.97863v0.497329l1.491987 4.973288c0.497329 1.491986 0.994658 2.486644 1.491986 3.978631v0.497328l1.989315 4.973289c0.497329 1.491986 0.994658 2.486644 1.491987 3.97863v0.497329c0.497329 1.491986 1.491986 2.983973 1.989315 4.475959s1.491986 2.983973 1.989315 4.973288v0.497329l1.491987 3.481301c0.994658 1.989315 1.989315 4.475959 2.983972 6.465275v0.497329l1.491987 2.983972c0.994658 2.486644 2.486644 4.973288 3.481301 7.459932l0.497329 0.994658c0.497329 0.994658 0.994658 1.491986 0.994658 2.486644l3.97863 8.45459 0.994658 1.989315 2.983973 5.470617c1.491986 2.983973 2.983973 5.470617 4.475959 8.454589 1.491986 2.486644 2.983973 5.470617 4.475959 8.45459 0 0.497329 0.497329 0.497329 0.497329 0.994657 1.491986 2.983973 2.983973 5.470617 4.973288 8.45459l0.994657 1.491986c0.497329 0.497329 0.497329 0.994658 0.994658 1.491987l3.97863 6.962603 0.994658 1.491986 5.470617 8.951919v0.497329c1.989315 3.481302 3.97863 6.465274 6.465274 9.946576l0.994658 1.989315 6.465274 10.443905 1.491987 1.989315c2.486644 3.481302 4.973288 7.459932 7.459932 10.941233l4.475959 6.962604 1.491986 2.486644 2.486644 4.475959c0.497329 0.994658 0.994658 1.491986 1.491987 2.486644l2.486644 3.97863 1.491986 2.486644 2.983973 1.989315 1.491986 2.486644c0.994658 0.994658 1.491986 2.486644 1.989315 3.481302s0.994658 1.491986 1.491987 2.486644l1.989315 3.481302 1.491986 1.989315c0.994658 0.994658 1.491986 2.486644 2.486644 3.481301l0.994658 1.491987c0.994658 1.491986 1.491986 2.983973 2.486644 3.97863 0 0.497329 0.497329 0.497329 0.497329 0.994658l2.983973 4.475959 0.994657 1.491986 1.989315 2.983973c0.497329 0.497329 0.497329 0.994658 0.994658 1.491987s0.994658 1.491986 1.491986 2.486644l0.994658 1.491986c0.497329 0.994658 0.994658 1.491986 1.491986 2.486644l0.994658 1.491986 1.491986 1.989316 0.994658 1.491986c0.497329 0.497329 0.994658 1.491986 0.994658 1.989315s0.497329 0.994658 0.994657 1.491987l0.994658 1.989315 0.497329 0.994657 1.491986 2.983973 5.470617 8.951919 1.491986 2.983972 3.481302 5.967946 1.989315 3.481302 2.983973 5.470616 1.989315 3.978631 2.486644 4.973288 1.491986 2.486644 4.47596 8.951918 1.491986 2.983973 5.470617 10.443905c0.497329 0.994658 0.994658 1.491986 1.491986 2.486644l2.983973 6.465274c0.497329 0.994658 0.994658 1.989315 1.491986 3.481302 0.994658 1.989315 1.989315 3.97863 2.486644 5.470617s0.994658 2.486644 1.491987 3.97863l1.989315 3.978631 1.989315 3.97863c0.497329 1.491986 0.994658 2.983973 1.989315 3.97863s0.994658 1.989315 1.491987 2.983973c1.989315 4.475959 3.97863 8.45459 5.470617 12.930549 0.497329 0.497329 0.497329 1.491986 0.994657 1.989315 1.491986 3.97863 3.481302 7.957261 4.973288 11.935891 0.994658 1.989315 1.491986 3.97863 2.486644 6.465275s1.491986 4.475959 2.486644 6.465274c0 0.497329 0.497329 1.491986 0.994658 1.989315l1.491986 3.978631c0.994658 2.486644 1.989315 5.470617 2.983973 7.957261 0 0.497329 0.497329 0.994658 0.497329 1.989315 0.497329 1.989315 1.491986 3.97863 1.989315 5.967945 0.497329 0.994658 0.497329 1.491986 0.994658 2.486644s0.994658 2.983973 1.491986 4.47596l0.994658 2.486644c0.497329 1.989315 0.994658 3.481302 1.491986 4.973288 0 0.497329 0.497329 0.994658 0.497329 1.491986 0.497329 1.989315 1.491986 3.97863 1.989315 5.967946 1.491986 4.475959 2.486644 8.45459 3.481302 12.43322 0 0.497329 0.497329 0.994658 0.497328 1.491986 0.994658 3.97863 1.989315 7.957261 2.983973 11.438562l0.497329 1.989316c0.994658 3.481302 1.491986 6.962603 1.989315 9.946576 0.497329 1.989315 0.994658 3.97863 0.994658 5.470616s0.994658 3.97863 0.994657 5.967946 0.497329 2.983973 0.994658 4.475959l0.994658 6.465275c0 1.491986 0.497329 2.486644 0.497328 3.97863 0.497329 1.989315 0.497329 4.475959 0.994658 6.465274 0 0.994658 0 1.989315 0.497329 2.983973 0.497329 2.983973 0.497329 5.967946 0.994657 8.951919v0.497328c0 2.983973 0.497329 5.967946 0.497329 8.951919v19.395823c0 2.486644-0.497329 4.973288-0.497329 7.459932v3.978631c0 3.481302-0.497329 6.465274-0.994657 9.449247v0.994657l-1.491987 10.443905c0 0.994658-0.497329 1.989315-0.497328 2.983973-0.497329 2.486644-0.994658 4.973288-1.491987 6.962603s-0.994658 4.475959-1.491986 6.962603v0.497329c-0.497329 2.486644-1.491986 4.475959-1.989315 6.962603l-0.497329 1.989316c-0.994658 2.486644-1.491986 4.475959-2.486644 6.962603 0 0.497329-0.497329 0.497329-0.497329 0.994657-0.994658 1.989315-1.491986 3.97863-2.486644 5.470617l-0.994658 1.989315c-0.497329 1.491986-1.491986 2.983973-1.989315 3.978631s-0.994658 1.989315-1.491986 3.481301-1.491986 2.486644-1.989315 3.481302-0.994658 1.989315-1.989316 2.983973-1.491986 2.486644-1.989315 3.481301l-1.491986 2.486644-2.486644 3.481302-1.491987 1.989315-2.983972 3.481302-1.491987 1.491986c-1.491986 1.491986-2.983973 3.481302-4.973288 4.973288-3.97863 3.97863-8.45459 6.962603-12.930549 9.946576L720.629432 925.031569c4.973288-2.486644 8.951918-5.967946 12.930549-9.946576 1.491986-1.491986 3.481302-2.983973 4.973288-4.973288l1.491986-1.491987 2.983973-3.481301 1.491986-1.989315c0.994658-0.994658 1.491986-2.486644 2.486644-3.481302 0.497329-0.994658 0.994658-1.491986 1.491987-2.486644s0.994658-1.491986 1.491986-1.989315l0.994658-1.491987c0.497329-0.994658 0.994658-1.989315 1.989315-2.983973s1.491986-1.989315 1.989315-3.481301l1.491986-3.481302c0.497329-0.497329 0.497329-0.994658 0.994658-1.989315l0.994658-1.989315c0.497329-0.497329 0.497329-1.491986 0.994657-1.989315 0.994658-1.989315 1.491986-3.97863 2.486644-5.470617l0.497329-0.994658c0.994658-1.989315 1.491986-4.475959 2.486644-6.465274 0-0.497329 0.497329-1.491986 0.497329-1.989315l0.994657-2.486644 0.994658-4.47596v-0.497328c0.497329-1.989315 0.994658-3.481302 1.491986-5.470617v-1.491987c0.497329-2.486644 0.994658-4.475959 1.491987-6.962603l0.497329-2.486644v-0.497329l1.491986-10.443904v-0.994658c0.497329-2.983973 0.497329-6.465274 0.994658-9.449247v-0.497329-2.983973c0-2.486644 0.497329-4.973288 0.497328-7.459932-0.497329-0.994658-0.497329-1.491986-0.497328-1.989315z" fill="#F4E49C" p-id="6131"></path><path d="M600.773191 329.231666c0.497329 1.491986 0.994658 2.486644 0.994657 3.97863 0.994658 2.983973 1.989315 6.465274 2.486644 9.449247 0.497329 0.994658 0.497329 1.989315 0.994658 3.481302 0.994658 3.97863 1.989315 8.45459 2.983973 12.930549 0 0.994658 0.497329 1.989315 0.497329 2.486644 0.497329 3.481302 1.491986 6.962603 1.989315 10.443905 0 1.491986 0.497329 2.983973 0.994657 4.475959l1.491987 8.951918 0.994657 4.973288c0.497329 2.983973 0.497329 5.967946 0.994658 8.45459 0 1.491986 0.497329 3.481302 0.497329 4.973288 0.497329 4.475959 0.994658 8.45459 0.994657 12.930549l153.177271-89.021856c0-3.481302-0.497329-7.459932-0.994658-10.941233v-1.989315l-0.497328-4.973288c0-1.989315-0.497329-3.481302-0.497329-5.470617s-0.497329-1.989315-0.497329-2.983973-0.497329-3.481302-0.497329-4.973288-0.497329-2.486644-0.497329-3.97863-0.497329-3.481302-0.994657-4.973288-0.497329-2.983973-0.994658-4.47596c0-0.497329 0-1.491986-0.497329-1.989315-0.497329-2.486644-0.994658-5.470617-1.491986-7.957261 0-0.994658-0.497329-1.491986-0.497329-2.486644v-0.497328c-0.994658-3.97863-1.491986-7.459932-2.486644-10.941234 0-0.497329 0-0.994658-0.497329-0.994658-0.497329-0.994658-0.497329-1.989315-0.994657-2.983972-0.497329-1.989315-0.994658-4.475959-1.491987-6.465275-0.497329-0.994658-0.497329-1.989315-0.994657-3.481301s-0.994658-2.486644-0.994658-3.978631-0.497329-1.989315-0.994657-3.481301c-0.497329-2.486644-1.491986-4.475959-1.989316-6.962604 0-0.994658-0.497329-1.491986-0.497328-2.486644v-0.994657c-0.994658-2.983973-1.989315-6.465274-3.481302-9.449247l-0.994658-2.983973-1.989315-5.967946c-0.994658-1.989315-1.491986-3.97863-2.486644-6.465274 0-0.497329-0.497329-0.994658-0.497329-1.491987l-0.497328-0.497328c-0.994658-2.486644-2.486644-5.470617-3.481302-7.957261l-2.486644-3.481302-0.994658-2.486644-1.491986-2.486644c-1.491986-2.486644-2.486644-5.470617-3.97863-7.957261v-0.497328L727.592035 174.06508c-1.491986-2.486644-2.486644-4.973288-3.97863-7.459932l-0.994658-1.989315c-0.994658-2.486644-2.486644-4.475959-3.481302-6.465274-0.994658-1.491986-1.491986-2.486644-2.486644-3.978631s-0.994658-1.491986-0.994657-1.989315l-2.983973-4.475959c-0.994658-1.491986-2.983973-4.475959-3.97863-6.465275s-1.989315-2.983973-2.983973-4.475959-1.491986-1.989315-1.989315-2.983973-1.491986-1.989315-1.989316-2.486644l-3.97863-6.465274-1.989315-2.983973-3.978631-4.973288-2.486644-2.983973-1.491986-1.491986c-0.994658-1.491986-2.486644-2.983973-3.481302-4.475959l-1.491986-1.989316-0.994658-1.491986-3.481301-3.97863-1.491987-1.989316-0.994657-0.994657c-1.491986-1.491986-2.486644-2.983973-3.978631-4.475959-0.497329-0.497329-0.994658-1.491986-1.989315-1.989316l-0.497329-0.497328c-1.989315-1.989315-3.481302-3.97863-5.470616-5.967946-1.989315-2.486644-4.475959-4.475959-6.962604-6.962603l-0.497328-0.497329-1.491987-1.491986-5.470617-4.973288-0.994657-0.994658-1.491987-0.994658-5.470616-4.973288-1.491987-1.491986-0.497329-0.497329c-2.486644-1.989315-5.470617-4.475959-7.957261-6.465274l-0.497328-0.497329-0.994658-0.994658-6.962603-4.973288-0.994658-0.994657-1.491986-0.994658c-2.486644-1.491986-4.475959-3.481302-6.962603-4.973288l-1.491987-0.994657-0.497329-0.497329-8.951918-5.967946-0.497329-0.497329c-0.497329-0.497329-0.994658-0.497329-1.491986-0.994657L593.313259 28.347742l-1.491987-0.994658-2.486644-1.491986-7.459932-3.978631c-2.983973-0.497329-5.470617-1.989315-8.454589-3.481301l-0.497329-0.497329-1.989315-0.994658-5.470617-1.989315-0.994658-0.497329-1.989315-0.994657-4.475959-1.989316-1.491986-0.497328-1.989316-0.994658-3.97863-1.491986-1.491986-0.497329-1.491987-0.497329-3.97863-1.491986-1.989315-0.497329-0.994658-0.497329c-0.994658-0.497329-2.486644-0.497329-3.97863-0.994658l-1.989316-0.497328H533.633803l-3.978631-0.994658-1.989315-0.497329h-0.994657l-3.978631-0.994657-1.989315-0.497329h-0.497329l-4.475959-0.497329h-15.914522c-0.994658 0-1.491986 0-2.486644 0.497329h-1.491986c-1.491986 0-2.983973 0.497329-4.475959 0.497329-1.989315 0.497329-3.97863 0.994658-5.470617 1.491986l-4.475959 1.491986c-2.486644 0.994658-4.475959 1.491986-6.465275 2.486644l-1.491986 0.497329-5.967946 2.983973-153.674599 89.519184 5.967946-2.983973 1.491986-0.497329c1.989315-0.994658 3.97863-1.989315 5.967946-2.486644s2.983973-0.994658 4.475959-1.491986 3.481302-0.994658 5.470617-1.491986 2.983973-0.497329 4.973288-0.994658h1.491986c1.491986 0 2.486644-0.497329 3.97863-0.497329h14.422536l4.475959 0.497329 2.486644 0.497329 3.97863 0.497329 2.983973 0.497328 3.481302 0.994658 2.983972 0.994658 3.481302 0.994657 2.983973 0.994658 3.97863 1.491986 2.983973 0.994658 3.978631 1.491986 2.983972 1.491987 4.47596 1.989315 2.983972 1.491986 5.470617 2.486644 2.486644 1.491987 8.45459 4.475959 7.459932 4.475959 3.97863 2.486644 7.459932 4.475959 1.989315 1.491987 8.951919 5.967945 1.989315 1.491987c2.486644 1.491986 4.475959 2.983973 6.962603 4.973288l2.486644 1.989315 6.962603 4.973288 1.491987 0.994658c2.486644 1.989315 5.470617 4.475959 7.957261 6.465274l1.989315 1.989315 5.470617 4.973288 2.486644 1.989315c1.989315 1.491986 3.481302 3.481302 5.470616 4.973288l1.989316 1.989316 6.962603 6.962603 0.994657 0.994657c1.989315 1.989315 3.97863 3.97863 5.470617 5.967946l2.486644 2.486644 3.978631 4.475959 2.486644 2.983973 3.481301 3.97863 2.486644 2.983973 3.481302 4.475959 3.97863 4.973288c1.989315 2.486644 3.97863 4.973288 5.967946 7.957261l4.475959 5.967946c1.491986 1.989315 2.486644 3.97863 3.97863 5.967945s1.989315 2.983973 2.983973 4.47596l3.978631 6.465274 2.486644 4.475959c0.994658 1.989315 2.486644 3.97863 3.481301 5.967946s2.486644 4.475959 3.481302 6.465274c1.491986 2.983973 3.481302 6.465274 4.973288 9.449247l0.497329 0.994658c1.989315 3.97863 3.481302 7.459932 5.470616 11.438562 0.497329 0.994658 0.994658 1.491986 0.994658 2.486644 1.491986 3.97863 3.481302 7.459932 4.973288 11.438563 0 0.497329 0.497329 0.994658 0.497329 1.491986 1.491986 3.97863 3.481302 7.957261 4.973288 12.43322l4.475959 13.427878 0.994658 1.989315c2.486644 0.994658 3.481302 4.475959 4.475959 7.957261z" fill="#ECB7B5" p-id="6132"></path><path d="M436.157358 115.87761c39.786304 22.877125 74.59932 53.71151 102.449733 90.016513 22.877125 29.839728 40.780962 62.663429 53.71151 97.476445 13.427878 36.305002 21.882467 74.101991 24.369111 112.893638l-107.42302-39.288975c-1.989315-33.818358-10.941234-66.642059-25.861098-96.979116-9.946576-19.395823-25.363769-35.807674-44.262263-46.251579-20.390481-11.935891-36.305002-10.443905-46.748907 4.475959C383.440505 250.156387 379.461875 268.557552 378.964546 293.423992c0 38.791646 14.422535 87.03254 43.764934 144.225352 14.919864 28.84507 31.829043 56.198154 49.73288 83.05391 25.861098 39.786304 43.267606 67.636717 51.224867 82.059252 24.86644 41.775619 46.251578 85.540554 63.658086 130.797475 6.962603 18.401166 12.930549 35.310345 16.909179 50.230208 10.443905 36.305002 15.914522 67.139388 16.411851 91.5085 0.497329 60.176785-12.930549 102.947062-40.780962 129.305488-18.401166 17.903837-43.764934 23.374454-77.085964 16.41185-21.882467-5.470617-42.770277-14.422535-62.1661-26.358426-43.267606-24.86644-80.567266-59.182127-108.915007-100.460418-24.86644-35.807674-44.262263-75.096649-57.192812-116.872268-13.925206-43.764934-22.379796-89.021855-24.369111-135.273434l106.925692 52.716853c4.475959 52.716853 15.914522 94.989801 33.818358 127.813502 12.930549 23.374454 27.353084 39.786304 43.764935 49.235551l2.486644 1.491986c24.369111 13.427878 44.262263 10.443905 58.684798-7.95726 7.459932-8.951918 11.438562-25.363769 11.438562-50.230209 0-35.310345-13.925206-78.57795-41.775619-129.802817-21.882467-36.802331-55.203497-92.005828-99.46576-165.610491-36.802331-62.663429-63.160758-114.882953-78.080622-156.161243-15.914522-42.770277-24.369111-88.524526-24.369111-134.278776 0.497329-77.583293 23.374454-123.337542 68.631375-137.262749 27.850413-7.957261 62.663429 0 103.941719 23.871782z" fill="#85A4C9" p-id="6133"></path></svg>