<svg t="1715250250140" class="icon" viewBox="0 0 1024 1024" version="1.1" xmlns="http://www.w3.org/2000/svg" p-id="6277" width="200" height="200"><path d="M271.918931 84.429295L417.19392 0l103.767849 59.902349-145.274989 84.429295z" fill="#F7D771" p-id="6278"></path><path d="M475.681253 879.668356l2.35836-1.415017 145.274989-84.429295c-0.943344 0.471672-1.415016 0.943344-2.358361 1.415016l-0.943344 0.471672-1.886688 0.471672-1.415016 0.471672-0.943344 0.471673-1.886688 0.471672h-0.943344c-0.943344 0-1.886688 0.471672-2.830033 0.471672H600.202672l-1.415017-0.471672h-0.943344l-2.35836-0.471672-2.830032-0.943345-0.943344-0.471672-1.886688-0.943344-0.943344-0.471672-1.886689-0.943344-0.943344-0.471672-1.886688-0.943344-1.415016-0.471672-2.830032-1.415016c-1.886688-1.415016-4.245048-2.35836-6.131737-3.773376l-5.660064-4.245049-0.471672-0.471672c-1.886688-1.415016-3.773376-2.830032-5.188393-4.71672l-0.471672-0.471672c-1.886688-1.415016-3.301704-3.301704-5.188392-4.716721l-0.471672-0.471672c-1.886688-1.886688-3.301704-3.773376-4.716721-5.660064v-0.471672c-1.886688-1.886688-3.301704-4.245048-4.71672-6.131737-1.415016-1.886688-2.830032-4.245048-4.245048-6.131736l-0.943344-1.415016c-1.415016-2.35836-2.830032-4.245048-4.245049-6.603409v-0.471672c-0.943344-1.415016-1.886688-3.301704-2.830032-4.71672l-0.943344-1.886689-0.943344-1.886688c-0.471672-0.943344-0.943344-1.415016-0.943344-2.35836l-0.471672-1.415016-1.415016-2.830032v-0.471672c-0.471672-0.943344-0.943344-2.35836-1.415017-3.301705 0-0.471672 0-0.471672-0.471672-0.943344l-0.943344-2.35836c0-0.471672 0-0.471672-0.471672-0.943344-0.471672-0.943344-0.943344-2.35836-1.415016-3.301704-0.471672-0.943344-0.943344-2.35836-0.943344-3.301705 0-0.471672 0-0.943344-0.471672-0.943344 0-0.943344-0.471672-1.415016-0.471672-2.35836l-0.471672-1.415016c0-0.943344-0.471672-1.415016-0.471672-2.35836v-0.943344l-0.943344-3.301705-0.471672-3.301704v-0.943344c0-0.943344 0-1.415016-0.471672-2.35836v-1.415016-2.35836-3.773377-0.943344-3.301704L522.848457 61.317365 375.68678 144.331644 373.800092 768.825426V784.390603c0 0.943344 0.471672 1.886688 0.471672 2.830033 0 0.943344 0.471672 1.886688 0.471672 2.830032V791.465684c0 0.471672 0 0.943344 0.471672 1.415016s0 0.471672 0 0.943344l0.471672 1.415016v0.943344l0.471672 1.415017c0 0.471672 0 0.943344 0.471672 0.943344v0.471672c0.471672 0.943344 0.471672 1.886688 0.943344 2.830032 0.471672 0.943344 0.471672 1.886688 0.943345 2.830032v0.471672c0 0.471672 0 0.471672 0.471672 0.943344 0 0.471672 0.471672 0.943344 0.471672 1.415016 0 0.471672 0.471672 0.943344 0.471672 1.415017 0 0.471672 0 0.471672 0.471672 0.943344v0.471672l1.415016 2.830032v0.471672c0.471672 0.943344 0.471672 1.415016 0.943344 2.35836l0.471672 0.471672 0.471672 1.415016c0 0.471672 0.471672 0.943344 0.471672 1.415016l0.471672 0.943344 0.943344 1.886689 0.471672 0.943344s0 0.471672 0.471672 0.471672c0.943344 1.415016 1.886688 3.301704 2.830032 4.71672 1.415016 2.35836 2.830032 4.245048 4.245049 6.603409l0.943344 1.415016 0.943344 1.415016c0.943344 1.886688 2.35836 3.301704 3.301704 4.71672l2.35836 3.301705 2.358361 2.830032v0.471672l1.886688 1.886688 2.35836 2.35836 0.943344 0.943344 0.471672 0.471672 0.943344 0.943345c0.943344 0.943344 1.415016 1.886688 2.35836 2.35836l1.415017 1.415016 0.471672 0.471672 0.471672 0.471672 2.830032 2.35836 2.35836 1.886688 0.471672 0.471672 2.830032 1.886689 2.830033 1.886688 2.35836 1.886688 2.830032 1.886688 0.471672 0.471672 2.35836 1.415016 0.471672 0.471672 1.415016 0.471672 0.943345 0.471672 0.943344 0.471672 0.943344 0.471672 0.943344 0.471672 0.943344 0.471672 0.943344 0.471672h0.471672l1.415016 0.471673 0.943344 0.471672 2.35836 0.943344h0.471672l1.886689 0.471672h0.943344l1.415016 0.471672h10.848457c0.943344 0 1.886688 0 2.830032-0.471672h0.943344l1.886688-0.471672 0.943344-0.471672 0.943344-0.471672h0.471672l1.415017-0.471672 3.773376 0.943344z" fill="#85A4C9" p-id="6279"></path><path d="M608.692768 278.758176l-1.886688 625.908798v9.433441c0 3.301704 0 6.131737-0.471672 8.961768 0 0.943344 0 1.886688-0.471672 2.830033 0 1.886688-0.471672 3.773376-0.471672 6.131736 0 1.415016-0.471672 2.35836-0.471672 3.773376s-0.471672 3.301704-0.943344 4.716721-0.471672 2.830032-0.943344 3.773376-0.471672 2.830032-0.943344 4.245049-0.943344 3.301704-1.415016 4.71672-0.471672 1.886688-0.943344 3.301704c-0.943344 2.830032-1.415016 5.188392-2.830033 8.018425s-1.415016 4.245048-2.35836 6.131736c0 0.471672-0.471672 0.943344-0.471672 1.415017-0.943344 1.415016-1.415016 2.830032-1.886688 4.245048l-0.943344 1.886688c-0.943344 1.886688-1.886688 3.301704-2.830032 4.71672l-0.471672 0.943345c-0.943344 1.886688-2.35836 3.301704-3.301705 5.188392l-0.943344 1.415016c-0.943344 1.415016-1.886688 2.35836-2.830032 3.773376s-0.943344 0.943344-1.415016 1.415017c-1.415016 1.415016-2.830032 2.830032-3.773377 4.245048v0.471672c-1.415016 1.415016-2.830032 2.830032-4.71672 4.245048l-1.415016 0.943344-3.773376 2.830033-1.415017 0.943344c-1.886688 0.943344-3.301704 2.35836-5.188392 3.301704l145.274989-84.429295c1.886688-0.943344 3.301704-1.886688 5.188392-3.301705l1.415016-0.943344c1.415016-0.943344 2.35836-1.886688 3.773376-2.830032l1.415017-0.943344c1.415016-1.415016 3.301704-2.830032 4.71672-4.245048v-0.471672c1.415016-1.415016 2.830032-2.830032 3.773376-4.245049l1.415016-1.415016c0.943344-0.943344 1.886688-2.35836 2.830033-3.773376l0.943344-1.415016c1.415016-1.415016 2.35836-3.301704 3.301704-5.188393l0.471672-0.943344c0.943344-1.415016 1.886688-3.301704 2.830032-4.71672 0.471672-0.471672 0.943344-1.415016 0.943344-1.886688s0.943344-1.886688 1.415016-2.830033l0.943345-1.415016c0-0.471672 0.471672-0.943344 0.471672-1.415016 0.943344-1.886688 1.415016-3.773376 2.35836-5.660064 0.943344-2.35836 1.886688-5.188392 2.830032-8.018425v-0.471672c0.471672-0.943344 0.471672-1.886688 0.943344-2.830032s0.943344-3.301704 1.415016-4.716721v-0.471672c0.471672-1.415016 0.471672-2.35836 0.943344-3.773376s0.471672-2.830032 0.943344-3.773376v-0.471672c0.471672-1.415016 0.471672-2.830032 0.471672-4.245049s0.471672-2.35836 0.471673-3.773376v-0.471672c0.471672-1.886688 0.471672-3.773376 0.471672-5.188393 0-0.943344 0-1.886688 0.471672-2.830032v-0.471672c0-2.830032 0.471672-5.660064 0.471672-8.961769v-0.943344-8.490096l1.886688-625.908798-145.274989 83.957623z" fill="#85A4C9" p-id="6280"></path><path d="M497.849839 214.610778l145.274988-83.957623 110.84293 63.675726-145.274989 84.429295z" fill="#F7D771" p-id="6281"></path><path d="M608.692768 278.758176l-1.886688 625.908798c0 54.242285-16.508521 90.561032-49.997236 108.484569-33.017043 17.923538-73.109166 13.678489-119.333026-13.206817-46.695532-26.885306-86.787655-68.864118-118.861355-124.993091S270.032243 763.637034 270.032243 710.338093L271.918931 84.429295l103.767849 59.902349L373.800092 768.825426c0.471672 21.225242 6.603409 41.978812 17.923538 59.902349 10.376785 18.866882 24.998618 34.432059 43.393827 45.752188 16.980193 9.905113 31.130355 11.320129 42.922156 4.245049 11.791801-6.603409 17.923538-19.810226 17.923538-39.14878l1.886688-624.493782 110.842929 63.675726z" fill="#ECB7B5" p-id="6282"></path></svg>